<?xml version="1.0" encoding="UTF-8" standalone="no"?>
<!-- Created with Inkscape (http://www.inkscape.org/) -->

<svg
   version="1.1"
   id="svg1"
   width="400"
   height="300"
   viewBox="0 0 400 300"
   sodipodi:docname="free-particle.svg"
   inkscape:version="1.4 (86a8ad7, 2024-10-11)"
   xmlns:inkscape="http://www.inkscape.org/namespaces/inkscape"
   xmlns:sodipodi="http://sodipodi.sourceforge.net/DTD/sodipodi-0.dtd"
   xmlns="http://www.w3.org/2000/svg"
   xmlns:svg="http://www.w3.org/2000/svg">
  <defs
     id="defs1" />
  <sodipodi:namedview
     id="namedview1"
     pagecolor="#ffffff"
     bordercolor="#000000"
     borderopacity="0.25"
     inkscape:showpageshadow="2"
     inkscape:pageopacity="0.0"
     inkscape:pagecheckerboard="0"
     inkscape:deskcolor="#d1d1d1"
     inkscape:zoom="0.76799242"
     inkscape:cx="357.4254"
     inkscape:cy="74.87053"
     inkscape:window-width="1920"
     inkscape:window-height="1046"
     inkscape:window-x="-11"
     inkscape:window-y="-11"
     inkscape:window-maximized="1"
     inkscape:current-layer="g1">
    <inkscape:page
       x="0"
       y="0"
       inkscape:label="1"
       id="page1"
       width="400"
       height="300"
       margin="0"
       bleed="0" />
  </sodipodi:namedview>
  <g
     id="g1"
     inkscape:groupmode="layer"
     inkscape:label="1">
    <path
       id="path1"
       d="M 67.71822,150.08062 H 333.38797"
       style="fill:none;stroke:#000000;stroke-width:1.32835;stroke-linecap:round;stroke-linejoin:round;stroke-miterlimit:10;stroke-dasharray:none;stroke-opacity:1" />
    <path
       id="path2"
       d="m 196.02931,153.99311 14.60067,-3.91249 -14.60067,-3.91248 z"
       style="fill:#000000;fill-opacity:1;fill-rule:nonzero;stroke:none;stroke-width:1.33333" />
    <path
       id="path3"
       d="m 53.6582,153.27343 c -0.10937,0.45313 -0.125,0.54688 -0.71875,0.54688 -0.15625,0 -0.29687,0 -0.29687,0.25 0,0.10937 0.0625,0.15625 0.17187,0.15625 0.35938,0 0.73438,-0.0469 1.10938,-0.0469 0.4375,0 0.89062,0.0469 1.3125,0.0469 0.0781,0 0.25,0 0.25,-0.26563 0,-0.14062 -0.14063,-0.14062 -0.32813,-0.14062 -0.65625,0 -0.65625,-0.0937 -0.65625,-0.21875 0,-0.15625 0.5625,-2.32813 0.64063,-2.65625 0.1875,0.39062 0.54687,0.84375 1.23437,0.84375 1.53125,0 3.20313,-1.9375 3.20313,-3.89063 0,-1.25 -0.76563,-2.125 -1.78125,-2.125 -0.65625,0 -1.29688,0.48438 -1.73438,1 -0.125,-0.71875 -0.70312,-1 -1.1875,-1 -0.60937,0 -0.875,0.51563 -0.98437,0.76563 -0.25,0.45312 -0.42188,1.25 -0.42188,1.28125 0,0.14062 0.14063,0.14062 0.17188,0.14062 0.125,0 0.14062,-0.0156 0.21875,-0.3125 0.21875,-0.9375 0.48437,-1.57812 0.96875,-1.57812 0.23437,0 0.40625,0.10937 0.40625,0.60937 0,0.3125 -0.0312,0.45313 -0.0937,0.67188 z m 2.34375,-5.76562 c 0.0937,-0.35938 0.45313,-0.73438 0.6875,-0.9375 0.46875,-0.40625 0.84375,-0.5 1.07813,-0.5 0.53125,0 0.84375,0.46875 0.84375,1.25 0,0.78125 -0.4375,2.3125 -0.67188,2.8125 -0.45312,0.9375 -1.09375,1.375 -1.57812,1.375 -0.875,0 -1.04688,-1.10938 -1.04688,-1.1875 0,-0.0312 0,-0.0469 0.0312,-0.21875 z m 291.35547,-1.57813 c 0,-0.0625 -0.0312,-0.14062 -0.12493,-0.14062 -0.15626,0 -0.68751,0.53125 -0.90626,0.92187 -0.29688,-0.71875 -0.8125,-0.9375 -1.23437,-0.9375 -1.56251,0 -3.20313,1.96875 -3.20313,3.89063 0,1.3125 0.78125,2.125 1.75,2.125 0.57813,0 1.09376,-0.3125 1.57813,-0.79688 -0.12493,0.46875 -0.56251,2.26563 -0.60937,2.39063 -0.10934,0.35937 -0.20314,0.42187 -0.95314,0.4375 -0.17186,0 -0.29686,0 -0.29686,0.26562 0,0 0,0.14063 0.17186,0.14063 0.42188,0 0.89063,-0.0469 1.32814,-0.0469 0.43749,0 0.92186,0.0469 1.35937,0.0469 0.0625,0 0.23437,0 0.23437,-0.26563 0,-0.14062 -0.12493,-0.14062 -0.34374,-0.14062 -0.625,0 -0.625,-0.0937 -0.625,-0.21875 0,-0.0937 0.0156,-0.17188 0.0468,-0.29688 z m -3.67188,5.57813 c -0.79688,0 -0.85937,-1.03125 -0.85937,-1.25 0,-0.64063 0.39062,-2.09375 0.60937,-2.64063 0.42188,-0.98437 1.10937,-1.54687 1.65625,-1.54687 0.85938,0 1.04687,1.07812 1.04687,1.17187 0,0.0781 -0.73437,2.98438 -0.76563,3.03125 -0.20312,0.375 -0.95312,1.23438 -1.68749,1.23438 z m 0,0"
       style="fill:#000000;fill-opacity:1;fill-rule:nonzero;stroke:none;stroke-width:1.33333" />
  </g>
</svg>
