<?xml version="1.0" encoding="UTF-8" standalone="no"?>
<!-- Created with Inkscape (http://www.inkscape.org/) -->

<svg
   version="1.1"
   id="svg1"
   width="400"
   height="300"
   viewBox="0 0 400 300"
   sodipodi:docname="two-pion-tree-level.svg"
   inkscape:version="1.4 (86a8ad7, 2024-10-11)"
   xmlns:inkscape="http://www.inkscape.org/namespaces/inkscape"
   xmlns:sodipodi="http://sodipodi.sourceforge.net/DTD/sodipodi-0.dtd"
   xmlns="http://www.w3.org/2000/svg"
   xmlns:svg="http://www.w3.org/2000/svg">
  <defs
     id="defs1" />
  <sodipodi:namedview
     id="namedview1"
     pagecolor="#ffffff"
     bordercolor="#000000"
     borderopacity="0.25"
     inkscape:showpageshadow="2"
     inkscape:pageopacity="0.0"
     inkscape:pagecheckerboard="0"
     inkscape:deskcolor="#d1d1d1"
     inkscape:zoom="1.5359848"
     inkscape:cx="155.92602"
     inkscape:cy="164.38964"
     inkscape:window-width="1920"
     inkscape:window-height="1046"
     inkscape:window-x="-11"
     inkscape:window-y="-11"
     inkscape:window-maximized="1"
     inkscape:current-layer="g1">
    <inkscape:page
       x="0"
       y="0"
       inkscape:label="1"
       id="page1"
       width="400"
       height="300"
       margin="0"
       bleed="0" />
  </sodipodi:namedview>
  <g
     id="g1"
     inkscape:groupmode="layer"
     inkscape:label="1">
    <path
       id="path1"
       d="M 95.851299,249.70873 147.73414,152.42675"
       style="fill:none;stroke:#000000;stroke-width:1.32835;stroke-linecap:round;stroke-linejoin:round;stroke-miterlimit:10;stroke-dasharray:none;stroke-opacity:1" />
    <path
       id="path2"
       d="m 123.11642,206.90028 3.41921,-14.72566 -10.32392,11.0432 z"
       style="fill:#000000;fill-opacity:1;fill-rule:nonzero;stroke:none;stroke-width:1.33333" />
    <path
       id="path3"
       d="M 95.851299,50.456415 147.73414,147.73852"
       style="fill:none;stroke:#000000;stroke-width:1.32835;stroke-linecap:round;stroke-linejoin:round;stroke-miterlimit:10;stroke-dasharray:none;stroke-opacity:1" />
    <path
       id="path4"
       d="M 116.21171,96.947395 126.53563,107.9906 123.11642,93.264925 Z"
       style="fill:#000000;fill-opacity:1;fill-rule:nonzero;stroke:none;stroke-width:1.33333" />
    <path
       id="path5"
       d="m 151.64032,150.08264 100.95404,1.2e-4"
       style="fill:none;stroke:#000000;stroke-width:1.32835;stroke-linecap:round;stroke-linejoin:round;stroke-miterlimit:10;stroke-dasharray:none;stroke-opacity:1" />
    <path
       id="path6"
       d="m 197.59367,153.99549 14.60316,-3.9128 -14.60316,-3.9128 z"
       style="fill:#000000;fill-opacity:1;fill-rule:nonzero;stroke:none;stroke-width:1.33333" />
    <path
       id="path7"
       d="m 256.50055,152.42687 51.8833,97.28186"
       style="fill:none;stroke:#000000;stroke-width:1.32835;stroke-linecap:round;stroke-linejoin:round;stroke-miterlimit:10;stroke-dasharray:none;stroke-opacity:1" />
    <path
       id="path8"
       d="m 276.86115,198.91773 10.32397,11.0432 -3.41927,-14.72568 z"
       style="fill:#000000;fill-opacity:1;fill-rule:nonzero;stroke:none;stroke-width:1.33333" />
    <path
       id="path9"
       d="m 256.50055,147.73864 51.8833,-97.282225"
       style="fill:none;stroke:#000000;stroke-width:1.32835;stroke-linecap:round;stroke-linejoin:round;stroke-miterlimit:10;stroke-dasharray:none;stroke-opacity:1" />
    <path
       id="path10"
       d="m 283.76585,104.93009 3.41927,-14.725755 -10.32397,11.043255 z"
       style="fill:#000000;fill-opacity:1;fill-rule:nonzero;stroke:none;stroke-width:1.33333" />
    <path
       id="path11"
       d="m 151.64102,150.08264 c 0,-0.70464 -0.27995,-1.38031 -0.77816,-1.87855 -0.49823,-0.49821 -1.17391,-0.77816 -1.87855,-0.77816 -0.70463,0 -1.38031,0.27995 -1.87853,0.77816 -0.49822,0.49824 -0.77816,1.17391 -0.77816,1.87855 0,0.70463 0.27994,1.38031 0.77816,1.87853 0.49822,0.49822 1.1739,0.77816 1.87853,0.77816 0.70464,0 1.38032,-0.27994 1.87855,-0.77816 0.49821,-0.49822 0.77816,-1.1739 0.77816,-1.87853 z"
       style="fill:#000000;fill-opacity:1;fill-rule:nonzero;stroke:#000000;stroke-width:1.32835;stroke-linecap:round;stroke-linejoin:round;stroke-miterlimit:10;stroke-dasharray:none;stroke-opacity:1" />
    <path
       id="path12"
       d="m 257.90707,150.08276 c 0,-0.70464 -0.27995,-1.38031 -0.77816,-1.87855 -0.49823,-0.4982 -1.17391,-0.77814 -1.87855,-0.77814 -0.70462,0 -1.3803,0.27994 -1.87853,0.77814 -0.49821,0.49824 -0.77816,1.17391 -0.77816,1.87855 0,0.70463 0.27995,1.38031 0.77816,1.87853 0.49823,0.49822 1.17391,0.77817 1.87853,0.77817 0.70464,0 1.38032,-0.27995 1.87855,-0.77817 0.49821,-0.49822 0.77816,-1.1739 0.77816,-1.87853 z"
       style="fill:#000000;fill-opacity:1;fill-rule:nonzero;stroke:#000000;stroke-width:1.32835;stroke-linecap:round;stroke-linejoin:round;stroke-miterlimit:10;stroke-dasharray:none;stroke-opacity:1" />
    <path
       id="path13"
       d="m 77.98831,262.50195 c -0.10937,0.45313 -0.125,0.54688 -0.71875,0.54688 -0.15625,0 -0.29687,0 -0.29687,0.25 0,0.10937 0.0625,0.15625 0.17187,0.15625 0.35938,0 0.73438,-0.0469 1.10938,-0.0469 0.4375,0 0.89062,0.0469 1.3125,0.0469 0.0781,0 0.25,0 0.25,-0.26563 0,-0.14062 -0.14063,-0.14062 -0.32813,-0.14062 -0.65625,0 -0.65625,-0.0937 -0.65625,-0.21875 0,-0.15625 0.5625,-2.32813 0.64063,-2.65625 0.1875,0.39062 0.54687,0.84375 1.23437,0.84375 1.53125,0 3.20313,-1.9375 3.20313,-3.89063 0,-1.25 -0.76563,-2.125 -1.78125,-2.125 -0.65625,0 -1.29688,0.48438 -1.73438,1 -0.125,-0.71875 -0.70312,-1 -1.1875,-1 -0.60937,0 -0.875,0.51563 -0.98437,0.76563 -0.25,0.45312 -0.42188,1.25 -0.42188,1.28125 0,0.14062 0.14063,0.14062 0.17188,0.14062 0.125,0 0.14062,-0.0156 0.21875,-0.3125 0.21875,-0.9375 0.48437,-1.57812 0.96875,-1.57812 0.23437,0 0.40625,0.10937 0.40625,0.60937 0,0.3125 -0.0312,0.45313 -0.0937,0.67188 z m 2.34375,-5.76562 c 0.0937,-0.35938 0.45313,-0.73438 0.6875,-0.9375 0.46875,-0.40625 0.84375,-0.5 1.07813,-0.5 0.53125,0 0.84375,0.46875 0.84375,1.25 0,0.78125 -0.4375,2.3125 -0.67188,2.8125 -0.45312,0.9375 -1.09375,1.375 -1.57812,1.375 -0.875,0 -1.04688,-1.10938 -1.04688,-1.1875 0,-0.0312 0,-0.0469 0.0312,-0.21875 z m 0,0"
       style="fill:#000000;fill-opacity:1;fill-rule:nonzero;stroke:none;stroke-width:1.33333" />
    <path
       id="path14"
       d="m 87.18753,256.96679 c 0,-0.25 -0.0156,-0.26563 -0.28125,-0.26563 -0.59375,0.57813 -1.4375,0.59375 -1.8125,0.59375 v 0.32813 c 0.21875,0 0.82813,0 1.34375,-0.25 v 4.73437 c 0,0.3125 0,0.4375 -0.92187,0.4375 h -0.35938 v 0.32813 c 0.17188,-0.0156 1.3125,-0.0312 1.65625,-0.0312 0.28125,0 1.45313,0.0156 1.65625,0.0312 v -0.32813 h -0.34375 c -0.9375,0 -0.9375,-0.125 -0.9375,-0.4375 z m 0,0"
       style="fill:#000000;fill-opacity:1;fill-rule:nonzero;stroke:none;stroke-width:1.33333" />
    <path
       id="path15"
       d="m 77.98831,44.044925 c -0.10937,0.45312 -0.125,0.54688 -0.71875,0.54688 -0.15625,0 -0.29687,0 -0.29687,0.25 0,0.10933 0.0625,0.15624 0.17187,0.15624 0.35938,0 0.73438,-0.0468 1.10938,-0.0468 0.4375,0 0.89062,0.0468 1.3125,0.0468 0.0781,0 0.25,0 0.25,-0.26561 0,-0.14063 -0.14063,-0.14063 -0.32813,-0.14063 -0.65625,0 -0.65625,-0.0937 -0.65625,-0.21876 0,-0.15624 0.5625,-2.32812 0.64063,-2.65624 0.1875,0.39063 0.54687,0.84375 1.23437,0.84375 1.53125,0 3.20313,-1.93751 3.20313,-3.89063 0,-1.25 -0.76563,-2.125 -1.78125,-2.125 -0.65625,0 -1.29688,0.48437 -1.73438,1 -0.125,-0.71875 -0.70312,-1 -1.1875,-1 -0.60937,0 -0.875,0.51563 -0.98437,0.76563 -0.25,0.45312 -0.42188,1.25 -0.42188,1.28125 0,0.14063 0.14063,0.14063 0.17188,0.14063 0.125,0 0.14062,-0.0156 0.21875,-0.31251 0.21875,-0.93749 0.48437,-1.57812 0.96875,-1.57812 0.23437,0 0.40625,0.10933 0.40625,0.60937 0,0.3125 -0.0312,0.45312 -0.0937,0.67187 z m 2.34375,-5.76563 c 0.0937,-0.35937 0.45313,-0.73437 0.6875,-0.93749 0.46875,-0.40625 0.84375,-0.5 1.07813,-0.5 0.53125,0 0.84375,0.46875 0.84375,1.25 0,0.78124 -0.4375,2.31249 -0.67188,2.81249 -0.45312,0.93751 -1.09375,1.375 -1.57812,1.375 -0.875,0 -1.04688,-1.10937 -1.04688,-1.18749 0,-0.0312 0,-0.0469 0.0312,-0.21876 z m 0,0"
       style="fill:#000000;fill-opacity:1;fill-rule:nonzero;stroke:none;stroke-width:1.33333" />
    <path
       id="path16"
       d="m 88.76566,42.728525 h -0.3125 c -0.0312,0.20312 -0.10938,0.75 -0.23438,0.84375 -0.0781,0.0469 -0.79687,0.0469 -0.92187,0.0469 h -1.71875 c 0.98437,-0.85937 1.3125,-1.125 1.85937,-1.56249 0.6875,-0.54688 1.32813,-1.125 1.32813,-2 0,-1.125 -0.98438,-1.81251 -2.17188,-1.81251 -1.15625,0 -1.9375,0.81251 -1.9375,1.65625 0,0.48438 0.40625,0.53126 0.5,0.53126 0.21875,0 0.5,-0.15626 0.5,-0.5 0,-0.17188 -0.0781,-0.48438 -0.5625,-0.48438 0.29688,-0.67188 0.92188,-0.875 1.35938,-0.875 0.9375,0 1.42187,0.73438 1.42187,1.48438 0,0.81249 -0.57812,1.45312 -0.875,1.78125 l -2.25,2.21875 c -0.0937,0.0781 -0.0937,0.0937 -0.0937,0.35937 h 3.8437 z m 0,0"
       style="fill:#000000;fill-opacity:1;fill-rule:nonzero;stroke:none;stroke-width:1.33333" />
    <path
       id="path17"
       d="m 320.19924,255.1582 c 0,-0.0625 -0.0312,-0.14062 -0.12493,-0.14062 -0.15624,0 -0.6875,0.53125 -0.90624,0.92187 -0.29688,-0.71875 -0.81251,-0.9375 -1.23438,-0.9375 -1.5625,0 -3.20313,1.96875 -3.20313,3.89063 0,1.3125 0.78125,2.125 1.75,2.125 0.57813,0 1.09375,-0.3125 1.57813,-0.79688 -0.12493,0.46875 -0.5625,2.26563 -0.60938,2.39063 -0.10934,0.35937 -0.20312,0.42187 -0.95312,0.4375 -0.17188,0 -0.29688,0 -0.29688,0.26562 0,0 0,0.14063 0.17188,0.14063 0.42188,0 0.89062,-0.0469 1.32812,-0.0469 0.4375,0 0.92188,0.0469 1.35938,0.0469 0.0625,0 0.23438,0 0.23438,-0.26563 0,-0.14062 -0.12494,-0.14062 -0.34376,-0.14062 -0.625,0 -0.625,-0.0937 -0.625,-0.21875 0,-0.0937 0.0156,-0.17188 0.0469,-0.29688 z m -3.67187,5.57813 c -0.79688,0 -0.85937,-1.03125 -0.85937,-1.25 0,-0.64063 0.39063,-2.09375 0.60937,-2.64063 0.42187,-0.98437 1.10938,-1.54687 1.65626,-1.54687 0.85937,0 1.04686,1.07812 1.04686,1.17187 0,0.0781 -0.73437,2.98438 -0.76562,3.03125 -0.20312,0.375 -0.95312,1.23438 -1.6875,1.23438 z m 0,0"
       style="fill:#000000;fill-opacity:1;fill-rule:nonzero;stroke:none;stroke-width:1.33333" />
    <path
       id="path18"
       d="m 323.23831,256.96679 c 0,-0.25 -0.0156,-0.26563 -0.28126,-0.26563 -0.59374,0.57813 -1.43749,0.59375 -1.81249,0.59375 v 0.32813 c 0.21875,0 0.82812,0 1.34375,-0.25 v 4.73437 c 0,0.3125 0,0.4375 -0.92188,0.4375 h -0.35938 v 0.32813 c 0.17188,-0.0156 1.31251,-0.0312 1.65626,-0.0312 0.28125,0 1.45312,0.0156 1.65625,0.0312 v -0.32813 h -0.34375 c -0.9375,0 -0.9375,-0.125 -0.9375,-0.4375 z m 0,0"
       style="fill:#000000;fill-opacity:1;fill-rule:nonzero;stroke:none;stroke-width:1.33333" />
    <path
       id="path19"
       d="m 320.19924,36.701175 c 0,-0.0625 -0.0312,-0.14062 -0.12493,-0.14062 -0.15624,0 -0.6875,0.53125 -0.90624,0.92188 -0.29688,-0.71876 -0.81251,-0.93751 -1.23438,-0.93751 -1.5625,0 -3.20313,1.96875 -3.20313,3.89063 0,1.31249 0.78125,2.125 1.75,2.125 0.57813,0 1.09375,-0.31251 1.57813,-0.79688 -0.12493,0.46876 -0.5625,2.26562 -0.60938,2.39062 -0.10934,0.35938 -0.20312,0.42188 -0.95312,0.43751 -0.17188,0 -0.29688,0 -0.29688,0.26563 0,0 0,0.14061 0.17188,0.14061 0.42188,0 0.89062,-0.0468 1.32812,-0.0468 0.4375,0 0.92188,0.0468 1.35938,0.0468 0.0625,0 0.23438,0 0.23438,-0.26561 0,-0.14063 -0.12494,-0.14063 -0.34376,-0.14063 -0.625,0 -0.625,-0.0937 -0.625,-0.21876 0,-0.0937 0.0156,-0.17187 0.0469,-0.29687 z m -3.67187,5.57812 c -0.79688,0 -0.85937,-1.03125 -0.85937,-1.25 0,-0.64062 0.39063,-2.09374 0.60937,-2.64062 0.42187,-0.98438 1.10938,-1.54687 1.65626,-1.54687 0.85937,0 1.04686,1.07812 1.04686,1.17187 0,0.0781 -0.73437,2.98437 -0.76562,3.03125 -0.20312,0.375 -0.95312,1.23437 -1.6875,1.23437 z m 0,0"
       style="fill:#000000;fill-opacity:1;fill-rule:nonzero;stroke:none;stroke-width:1.33333" />
    <path
       id="path20"
       d="m 324.81643,42.728525 h -0.3125 c -0.0312,0.20312 -0.10933,0.75 -0.23437,0.84375 -0.0781,0.0469 -0.79688,0.0469 -0.92188,0.0469 h -1.71875 c 0.98438,-0.85937 1.3125,-1.125 1.85938,-1.56249 0.6875,-0.54688 1.32812,-1.125 1.32812,-2 0,-1.125 -0.98438,-1.81251 -2.17187,-1.81251 -1.15625,0 -1.93751,0.81251 -1.93751,1.65625 0,0.48438 0.40626,0.53126 0.5,0.53126 0.21876,0 0.5,-0.15626 0.5,-0.5 0,-0.17188 -0.0781,-0.48438 -0.56249,-0.48438 0.29687,-0.67188 0.92187,-0.875 1.35937,-0.875 0.9375,0 1.42188,0.73438 1.42188,1.48438 0,0.81249 -0.57813,1.45312 -0.875,1.78125 l -2.25,2.21875 c -0.0937,0.0781 -0.0937,0.0937 -0.0937,0.35937 h 3.84376 z m 0,0"
       style="fill:#000000;fill-opacity:1;fill-rule:nonzero;stroke:none;stroke-width:1.33333" />
    <g
       id="g2"
       transform="translate(89.519112,-14.648582)">
      <path
         id="path21"
         d="m 78.26175,144.32617 c 0,0 0,-0.14063 -0.17187,-0.14063 -0.3125,0 -1.28125,0.10937 -1.625,0.14063 -0.10938,0 -0.25,0.0156 -0.25,0.26562 0,0.15625 0.125,0.15625 0.3125,0.15625 0.64062,0 0.67187,0.0937 0.67187,0.21875 l -0.0469,0.26563 -1.92188,7.65625 c -0.0469,0.1875 -0.0469,0.20312 -0.0469,0.29687 0,0.29688 0.26562,0.35938 0.375,0.35938 0.17187,0 0.375,-0.10938 0.45312,-0.28125 0.0781,-0.10938 0.67188,-2.5625 0.75,-2.90625 0.45313,0.0469 1.54688,0.25 1.54688,1.14062 0,0.0937 0,0.14063 -0.0469,0.26563 -0.0312,0.17187 -0.0469,0.32812 -0.0469,0.46875 0,0.78125 0.53125,1.3125 1.21875,1.3125 0.39062,0 0.75,-0.20313 1.04687,-0.70313 0.32813,-0.57812 0.48438,-1.3125 0.48438,-1.34375 0,-0.125 -0.125,-0.125 -0.17188,-0.125 -0.125,0 -0.14062,0.0469 -0.1875,0.23438 -0.26562,0.96875 -0.5625,1.65625 -1.15625,1.65625 -0.25,0 -0.42187,-0.15625 -0.42187,-0.625 0,-0.23438 0.0625,-0.53125 0.10937,-0.75 0.0469,-0.21875 0.0469,-0.28125 0.0469,-0.40625 0,-0.875 -0.82813,-1.25 -1.95313,-1.40625 0.40625,-0.23438 0.82813,-0.65625 1.14063,-0.96875 0.64062,-0.70313 1.25,-1.28125 1.89062,-1.28125 0.0781,0 0.0937,0 0.125,0.0156 0.15625,0.0313 0.17188,0.0313 0.28125,0.10938 0.0312,0 0.0312,0.0156 0.0469,0.0469 -0.64063,0.0469 -0.75,0.5625 -0.75,0.71875 0,0.21875 0.14062,0.46875 0.5,0.46875 0.34375,0 0.73437,-0.29688 0.73437,-0.8125 0,-0.40625 -0.3125,-0.84375 -0.90625,-0.84375 -0.375,0 -0.98437,0.10937 -1.9375,1.17187 -0.45312,0.5 -0.96875,1.03125 -1.46875,1.23438 z m 0,0"
         style="fill:#000000;fill-opacity:1;fill-rule:nonzero;stroke:none;stroke-width:1.33333" />
      <path
         id="path22"
         d="m 94.59769,149.06054 c 0.20312,0 0.45312,0 0.45312,-0.26562 0,-0.26563 -0.25,-0.26563 -0.4375,-0.26563 h -7.95312 c -0.1875,0 -0.4375,0 -0.4375,0.26563 0,0.26562 0.25,0.26562 0.45312,0.26562 z m 0.0156,2.57813 c 0.1875,0 0.4375,0 0.4375,-0.26563 0,-0.26562 -0.25,-0.26562 -0.45313,-0.26562 h -7.92188 c -0.20312,0 -0.45312,0 -0.45312,0.26562 0,0.26563 0.25,0.26563 0.4375,0.26563 z m 0,0"
         style="fill:#000000;fill-opacity:1;fill-rule:nonzero;stroke:none;stroke-width:1.33333" />
      <path
         id="path23"
         d="m 100.08988,155.02929 c -0.10938,0.45313 -0.125,0.54688 -0.71875,0.54688 -0.15625,0 -0.29688,0 -0.29688,0.25 0,0.10937 0.0625,0.15625 0.17188,0.15625 0.35937,0 0.73437,-0.0469 1.10937,-0.0469 0.4375,0 0.89063,0.0469 1.3125,0.0469 0.0781,0 0.25,0 0.25,-0.26563 0,-0.14062 -0.14062,-0.14062 -0.32812,-0.14062 -0.65625,0 -0.65625,-0.0937 -0.65625,-0.21875 0,-0.15625 0.5625,-2.32813 0.64062,-2.65625 0.1875,0.39062 0.54688,0.84375 1.23438,0.84375 1.53125,0 3.20312,-1.9375 3.20312,-3.89063 0,-1.25 -0.76562,-2.125 -1.78125,-2.125 -0.65625,0 -1.29687,0.48438 -1.73437,1 -0.125,-0.71875 -0.70313,-1 -1.1875,-1 -0.60938,0 -0.875,0.51563 -0.98438,0.76563 -0.25,0.45312 -0.42187,1.25 -0.42187,1.28125 0,0.14062 0.14062,0.14062 0.17187,0.14062 0.125,0 0.14063,-0.0156 0.21875,-0.3125 0.21875,-0.9375 0.48438,-1.57812 0.96875,-1.57812 0.23438,0 0.40625,0.10937 0.40625,0.60937 0,0.3125 -0.0312,0.45313 -0.0937,0.67188 z m 2.34375,-5.76562 c 0.0937,-0.35938 0.45312,-0.73438 0.6875,-0.9375 0.46875,-0.40625 0.84375,-0.5 1.07812,-0.5 0.53125,0 0.84375,0.46875 0.84375,1.25 0,0.78125 -0.4375,2.3125 -0.67187,2.8125 -0.45313,0.9375 -1.09375,1.375 -1.57813,1.375 -0.875,0 -1.04687,-1.10938 -1.04687,-1.1875 0,-0.0313 0,-0.0469 0.0312,-0.21875 z m 0,0"
         style="fill:#000000;fill-opacity:1;fill-rule:nonzero;stroke:none;stroke-width:1.33333" />
      <path
         id="path24"
         d="m 109.28519,149.49023 c 0,-0.25 -0.0156,-0.26563 -0.28125,-0.26563 -0.59375,0.57813 -1.4375,0.59375 -1.8125,0.59375 v 0.32813 c 0.21875,0 0.82812,0 1.34375,-0.25 v 4.73437 c 0,0.3125 0,0.4375 -0.92188,0.4375 h -0.35937 v 0.32813 c 0.17187,-0.0156 1.3125,-0.0312 1.65625,-0.0312 0.28125,0 1.45312,0.0156 1.65625,0.0312 v -0.32813 h -0.34375 c -0.9375,0 -0.9375,-0.125 -0.9375,-0.4375 z m 0,0"
         style="fill:#000000;fill-opacity:1;fill-rule:nonzero;stroke:none;stroke-width:1.33333" />
      <path
         id="path25"
         d="m 120.52738,150.34179 h 3.70312 c 0.1875,0 0.4375,0 0.4375,-0.26562 0,-0.26563 -0.25,-0.26563 -0.4375,-0.26563 h -3.70312 v -3.71875 c 0,-0.17187 0,-0.4375 -0.26563,-0.4375 -0.26562,0 -0.26562,0.26563 -0.26562,0.4375 v 3.71875 h -3.71875 c -0.1875,0 -0.4375,0 -0.4375,0.26563 0,0.26562 0.25,0.26562 0.4375,0.26562 h 3.71875 v 3.73438 c 0,0.17187 0,0.4375 0.26562,0.4375 0.26563,0 0.26563,-0.26563 0.26563,-0.4375 z m 0,0"
         style="fill:#000000;fill-opacity:1;fill-rule:nonzero;stroke:none;stroke-width:1.33333" />
      <path
         id="path26"
         d="m 128.96488,155.02929 c -0.10938,0.45313 -0.125,0.54688 -0.71875,0.54688 -0.15625,0 -0.29688,0 -0.29688,0.25 0,0.10937 0.0625,0.15625 0.17188,0.15625 0.35937,0 0.73437,-0.0469 1.10937,-0.0469 0.4375,0 0.89063,0.0469 1.3125,0.0469 0.0781,0 0.25,0 0.25,-0.26563 0,-0.14062 -0.14062,-0.14062 -0.32812,-0.14062 -0.65625,0 -0.65625,-0.0937 -0.65625,-0.21875 0,-0.15625 0.5625,-2.32813 0.64062,-2.65625 0.1875,0.39062 0.54688,0.84375 1.23438,0.84375 1.53125,0 3.20312,-1.9375 3.20312,-3.89063 0,-1.25 -0.76562,-2.125 -1.78125,-2.125 -0.65625,0 -1.29687,0.48438 -1.73437,1 -0.125,-0.71875 -0.70313,-1 -1.1875,-1 -0.60938,0 -0.875,0.51563 -0.98438,0.76563 -0.25,0.45312 -0.42187,1.25 -0.42187,1.28125 0,0.14062 0.14062,0.14062 0.17187,0.14062 0.125,0 0.14063,-0.0156 0.21875,-0.3125 0.21875,-0.9375 0.48438,-1.57812 0.96875,-1.57812 0.23438,0 0.40625,0.10937 0.40625,0.60937 0,0.3125 -0.0312,0.45313 -0.0937,0.67188 z m 2.34375,-5.76562 c 0.0937,-0.35938 0.45312,-0.73438 0.6875,-0.9375 0.46875,-0.40625 0.84375,-0.5 1.07812,-0.5 0.53125,0 0.84375,0.46875 0.84375,1.25 0,0.78125 -0.4375,2.3125 -0.67187,2.8125 -0.45313,0.9375 -1.09375,1.375 -1.57813,1.375 -0.875,0 -1.04687,-1.10938 -1.04687,-1.1875 0,-0.0313 0,-0.0469 0.0312,-0.21875 z m 0,0"
         style="fill:#000000;fill-opacity:1;fill-rule:nonzero;stroke:none;stroke-width:1.33333" />
      <path
         id="path27"
         d="m 139.74222,153.70898 h -0.3125 c -0.0312,0.20312 -0.10937,0.75 -0.23438,0.84375 -0.0781,0.0469 -0.79687,0.0469 -0.92187,0.0469 h -1.71875 c 0.98437,-0.85938 1.3125,-1.125 1.85937,-1.5625 0.6875,-0.54688 1.32813,-1.125 1.32813,-2 0,-1.125 -0.98438,-1.8125 -2.17188,-1.8125 -1.15625,0 -1.9375,0.8125 -1.9375,1.65625 0,0.48437 0.40625,0.53125 0.5,0.53125 0.21875,0 0.5,-0.15625 0.5,-0.5 0,-0.17188 -0.0781,-0.48438 -0.5625,-0.48438 0.29688,-0.67187 0.92188,-0.875 1.35938,-0.875 0.9375,0 1.42187,0.73438 1.42187,1.48438 0,0.8125 -0.57812,1.45312 -0.875,1.78125 l -2.25,2.21875 c -0.0937,0.0781 -0.0937,0.0937 -0.0937,0.35937 h 3.84375 z m 0,0"
         style="fill:#000000;fill-opacity:1;fill-rule:nonzero;stroke:none;stroke-width:1.33333" />
    </g>
  </g>
</svg>
