<?xml version="1.0" encoding="UTF-8" standalone="no"?>
<!-- Created with Inkscape (http://www.inkscape.org/) -->

<svg
   version="1.1"
   id="svg1"
   width="400"
   height="300"
   viewBox="0 0 400 300"
   sodipodi:docname="two-pion-vertex.svg"
   inkscape:version="1.4 (86a8ad7, 2024-10-11)"
   xmlns:inkscape="http://www.inkscape.org/namespaces/inkscape"
   xmlns:sodipodi="http://sodipodi.sourceforge.net/DTD/sodipodi-0.dtd"
   xmlns="http://www.w3.org/2000/svg"
   xmlns:svg="http://www.w3.org/2000/svg">
  <defs
     id="defs1" />
  <sodipodi:namedview
     id="namedview1"
     pagecolor="#ffffff"
     bordercolor="#000000"
     borderopacity="0.25"
     inkscape:showpageshadow="2"
     inkscape:pageopacity="0.0"
     inkscape:pagecheckerboard="0"
     inkscape:deskcolor="#d1d1d1"
     inkscape:zoom="1.0861053"
     inkscape:cx="395.44969"
     inkscape:cy="241.68927"
     inkscape:window-width="1920"
     inkscape:window-height="1046"
     inkscape:window-x="-11"
     inkscape:window-y="-11"
     inkscape:window-maximized="1"
     inkscape:current-layer="g1">
    <inkscape:page
       x="0"
       y="0"
       inkscape:label="1"
       id="page1"
       width="400"
       height="300"
       margin="0"
       bleed="0" />
  </sodipodi:namedview>
  <g
     id="g1"
     inkscape:groupmode="layer"
     inkscape:label="1">
    <path
       id="path1"
       d="M 94.956741,249.70874 199.28534,151.89917"
       style="fill:none;stroke:#000000;stroke-width:1.32835;stroke-linecap:round;stroke-linejoin:round;stroke-miterlimit:10;stroke-dasharray:none;stroke-opacity:1" />
    <path
       id="path2"
       d="m 146.49721,206.75223 7.97704,-12.84196 -13.32934,7.13299 z"
       style="fill:#000000;fill-opacity:1;fill-rule:nonzero;stroke:none;stroke-width:1.33333" />
    <path
       id="path3"
       d="M 94.956741,50.456415 199.28534,148.266"
       style="fill:none;stroke:#000000;stroke-width:1.32835;stroke-linecap:round;stroke-linejoin:round;stroke-miterlimit:10;stroke-dasharray:none;stroke-opacity:1" />
    <path
       id="path4"
       d="m 141.14491,99.121915 13.32934,7.132965 -7.97704,-12.841955 z"
       style="fill:#000000;fill-opacity:1;fill-rule:nonzero;stroke:none;stroke-width:1.33333" />
    <path
       id="path5"
       d="m 203.1607,151.89917 104.3286,97.80957"
       style="fill:none;stroke:#000000;stroke-width:1.32835;stroke-linecap:round;stroke-linejoin:round;stroke-miterlimit:10;stroke-dasharray:none;stroke-opacity:1" />
    <path
       id="path6"
       d="m 249.34887,200.56466 13.32932,7.13297 -7.97703,-12.84196 z"
       style="fill:#000000;fill-opacity:1;fill-rule:nonzero;stroke:none;stroke-width:1.33333" />
    <path
       id="path7"
       d="M 203.1607,148.266 307.4893,50.456415"
       style="fill:none;stroke:#000000;stroke-width:1.32835;stroke-linecap:round;stroke-linejoin:round;stroke-miterlimit:10;stroke-dasharray:none;stroke-opacity:1" />
    <path
       id="path8"
       d="m 254.70116,105.30949 7.97703,-12.841965 -13.32932,7.13297 z"
       style="fill:#000000;fill-opacity:1;fill-rule:nonzero;stroke:none;stroke-width:1.33333" />
    <path
       id="path9"
       d="m 203.87971,150.08258 c 0,-0.70464 -0.27995,-1.3803 -0.77816,-1.87853 -0.49823,-0.49821 -1.17391,-0.77816 -1.87853,-0.77816 -0.70463,0 -1.38031,0.27995 -1.87855,0.77816 -0.4982,0.49823 -0.77814,1.17389 -0.77814,1.87853 0,0.70463 0.27994,1.38031 0.77814,1.87855 0.49824,0.4982 1.17392,0.77815 1.87855,0.77815 0.70462,0 1.3803,-0.27995 1.87853,-0.77815 0.49821,-0.49824 0.77816,-1.17392 0.77816,-1.87855 z"
       style="fill:#000000;fill-opacity:1;fill-rule:nonzero;stroke:#000000;stroke-width:1.32835;stroke-linecap:round;stroke-linejoin:round;stroke-miterlimit:10;stroke-dasharray:none;stroke-opacity:1" />
    <g
       id="g9"
       aria-label="p&#10;1&#10;p&#10;2&#10;q&#10;1&#10;q&#10;2&#10;1"
       transform="matrix(1.3333333,0,0,1.3333333,76.500142,260.87807)">
      <path
         id="path10"
         d="m 0.44521094,1.2179141 c -0.0820313,0.3398437 -0.09375,0.4101562 -0.5390625,0.4101562 -0.1171875,0 -0.22265625,0 -0.22265625,0.1875 0,0.082031 0.046875,0.1171875 0.12890625,0.1171875 0.26953125,0 0.55078125,-0.035156 0.83203125,-0.035156 0.328125,0 0.66796871,0.035156 0.98437501,0.035156 0.058594,0 0.1875,0 0.1875,-0.1992187 0,-0.1054688 -0.1054688,-0.1054688 -0.2460938,-0.1054688 -0.4921875,0 -0.4921875,-0.070312 -0.4921875,-0.1640625 0,-0.1171875 0.421875,-1.74609374 0.4804688,-1.99218749 0.140625,0.29296875 0.4101562,0.6328125 0.9257812,0.6328125 1.1484375,0 2.4023438,-1.45312501 2.4023438,-2.91796871 0,-0.9375 -0.5742188,-1.59375 -1.3359375,-1.59375 -0.4921875,0 -0.9726563,0.3632812 -1.3007813,0.75 -0.09375,-0.5390625 -0.5273437,-0.75 -0.890625,-0.75 -0.45703121,0 -0.65624996,0.3867187 -0.73828121,0.5742187 -0.1875,0.3398438 -0.31640625,0.9375 -0.31640625,0.9609375 0,0.1054688 0.10546875,0.1054688 0.12890625,0.1054688 0.09375,0 0.10546875,-0.011719 0.1640625,-0.234375 0.1640625,-0.703125 0.36328125,-1.1835938 0.72656251,-1.1835938 0.1757812,0 0.3046875,0.082031 0.3046875,0.4570313 0,0.234375 -0.023437,0.3398437 -0.070312,0.5039062 z M 2.2030234,-3.1063047 c 0.070312,-0.2695312 0.3398438,-0.5507812 0.515625,-0.703125 0.3515625,-0.3046875 0.6328125,-0.375 0.8085938,-0.375 0.3984375,0 0.6328125,0.3515625 0.6328125,0.9375 0,0.5859375 -0.328125,1.734375 -0.5039063,2.109375 -0.3398437,0.70312501 -0.8203125,1.03125001 -1.1835937,1.03125001 -0.65625,0 -0.7851563,-0.83203125 -0.7851563,-0.890625 0,-0.0234375 0,-0.0351562 0.023437,-0.16406251 z m 0,0"
         style="fill:#000000;fill-opacity:1;fill-rule:nonzero;stroke:none" />
      <path
         id="path11"
         d="m 7.344625,-2.9334531 c 0,-0.1875 -0.011719,-0.1992188 -0.2109375,-0.1992188 -0.4453125,0.4335938 -1.078125,0.4453125 -1.359375,0.4453125 v 0.2460938 c 0.1640625,0 0.6210938,0 1.0078125,-0.1875 v 3.55078122 c 0,0.23437498 0,0.32812498 -0.6914062,0.32812498 H 5.8211875 v 0.2460938 c 0.1289063,-0.011719 0.984375,-0.023437 1.2421875,-0.023437 0.2109375,0 1.0898438,0.011719 1.2421875,0.023437 V 1.2501406 H 8.04775 c -0.703125,0 -0.703125,-0.09375 -0.703125,-0.32812498 z m 0,0"
         style="fill:#000000;fill-opacity:1;fill-rule:nonzero;stroke:none" />
      <path
         id="path12"
         d="m 0.44521094,-162.62486 c -0.0820313,0.33984 -0.09375,0.41016 -0.5390625,0.41016 -0.1171875,0 -0.22265625,0 -0.22265625,0.1875 0,0.082 0.046875,0.11718 0.12890625,0.11718 0.26953125,0 0.55078125,-0.0351 0.83203125,-0.0351 0.328125,0 0.66796871,0.0351 0.98437501,0.0351 0.058594,0 0.1875,0 0.1875,-0.19921 0,-0.10547 -0.1054688,-0.10547 -0.2460938,-0.10547 -0.4921875,0 -0.4921875,-0.0703 -0.4921875,-0.16407 0,-0.11718 0.421875,-1.74609 0.4804688,-1.99218 0.140625,0.29297 0.4101562,0.63281 0.9257812,0.63281 1.1484375,0 2.4023438,-1.45313 2.4023438,-2.91797 0,-0.9375 -0.5742188,-1.59375 -1.3359375,-1.59375 -0.4921875,0 -0.9726563,0.36328 -1.3007813,0.75 -0.09375,-0.53906 -0.5273437,-0.75 -0.890625,-0.75 -0.45703121,0 -0.65624996,0.38672 -0.73828121,0.57422 -0.1875,0.33984 -0.31640625,0.9375 -0.31640625,0.96094 0,0.10547 0.10546875,0.10547 0.12890625,0.10547 0.09375,0 0.10546875,-0.0117 0.1640625,-0.23438 0.1640625,-0.70312 0.36328125,-1.18359 0.72656251,-1.18359 0.1757812,0 0.3046875,0.082 0.3046875,0.45703 0,0.23437 -0.023437,0.33984 -0.070312,0.5039 z m 1.75781246,-4.32422 c 0.070312,-0.26953 0.3398438,-0.55078 0.515625,-0.70312 0.3515625,-0.30469 0.6328125,-0.375 0.8085938,-0.375 0.3984375,0 0.6328125,0.35156 0.6328125,0.9375 0,0.58593 -0.328125,1.73437 -0.5039063,2.10937 -0.3398437,0.70313 -0.8203125,1.03125 -1.1835937,1.03125 -0.65625,0 -0.7851563,-0.83203 -0.7851563,-0.89062 0,-0.0234 0,-0.0352 0.023437,-0.16407 z m 0,0"
         style="fill:#000000;fill-opacity:1;fill-rule:nonzero;stroke:none" />
      <path
         id="path13"
         d="m 8.5282188,-163.61216 h -0.234375 c -0.023437,0.15234 -0.082031,0.5625 -0.1757813,0.63281 -0.058594,0.0352 -0.5976562,0.0352 -0.6914062,0.0352 H 6.1375938 c 0.7382812,-0.64453 0.984375,-0.84375 1.3945312,-1.17187 0.515625,-0.41016 0.9960938,-0.84375 0.9960938,-1.5 0,-0.84375 -0.7382813,-1.35938 -1.6289063,-1.35938 -0.8671875,0 -1.453125,0.60938 -1.453125,1.24219 0,0.36328 0.3046875,0.39844 0.375,0.39844 0.1640625,0 0.375,-0.11719 0.375,-0.375 0,-0.12891 -0.058594,-0.36328 -0.421875,-0.36328 0.2226563,-0.50391 0.6914063,-0.65625 1.0195313,-0.65625 0.703125,0 1.0664062,0.55078 1.0664062,1.11328 0,0.60937 -0.4335937,1.08984 -0.65625,1.33594 l -1.6875,1.66406 c -0.070312,0.0586 -0.070312,0.0703 -0.070312,0.26953 H 8.329 Z m 0,0"
         style="fill:#000000;fill-opacity:1;fill-rule:nonzero;stroke:none" />
      <path
         id="path14"
         d="m 182.10341,-4.2898984 c 0,-0.046875 -0.0234,-0.1054688 -0.0937,-0.1054688 -0.11718,0 -0.51562,0.3984375 -0.67968,0.6914063 -0.22266,-0.5390625 -0.60938,-0.703125 -0.92578,-0.703125 -1.17188,0 -2.40235,1.4765625 -2.40235,2.9179687 0,0.98437501 0.58594,1.59375001 1.3125,1.59375001 0.4336,0 0.82031,-0.234375 1.1836,-0.59765625 -0.0937,0.3515625 -0.42188,1.69921874 -0.45704,1.79296874 -0.082,0.2695313 -0.15234,0.3164063 -0.71484,0.328125 -0.12891,0 -0.22266,0 -0.22266,0.1992188 0,0 0,0.1054687 0.12891,0.1054687 0.31641,0 0.66797,-0.035156 0.99609,-0.035156 0.32813,0 0.69141,0.035156 1.01954,0.035156 0.0469,0 0.17578,0 0.17578,-0.1992187 0,-0.1054688 -0.0937,-0.1054688 -0.25782,-0.1054688 -0.46875,0 -0.46875,-0.070312 -0.46875,-0.1640625 0,-0.070312 0.0117,-0.1289062 0.0352,-0.2226562 z m -2.7539,4.18359371 c -0.59766,0 -0.64453,-0.7734375 -0.64453,-0.93750001 0,-0.4804687 0.29297,-1.5703125 0.45703,-1.9804687 0.3164,-0.7382813 0.83203,-1.1601563 1.24219,-1.1601563 0.64453,0 0.78515,0.8085938 0.78515,0.8789063 0,0.058594 -0.55078,2.2382812 -0.57422,2.2734375 -0.15234,0.28124996 -0.71484,0.92578121 -1.26562,0.92578121 z m 0,0"
         style="fill:#000000;fill-opacity:1;fill-rule:nonzero;stroke:none" />
      <path
         id="path15"
         d="m 184.38271,-2.9334531 c 0,-0.1875 -0.0117,-0.1992188 -0.21094,-0.1992188 -0.44531,0.4335938 -1.07812,0.4453125 -1.35937,0.4453125 v 0.2460938 c 0.16406,0 0.62109,0 1.00781,-0.1875 v 3.55078122 c 0,0.23437498 0,0.32812498 -0.69141,0.32812498 h -0.26953 v 0.2460938 c 0.12891,-0.011719 0.98438,-0.023437 1.24219,-0.023437 0.21094,0 1.08984,0.011719 1.24219,0.023437 V 1.2501406 h -0.25781 c -0.70313,0 -0.70313,-0.09375 -0.70313,-0.32812498 z m 0,0"
         style="fill:#000000;fill-opacity:1;fill-rule:nonzero;stroke:none" />
      <path
         id="path16"
         d="m 182.10341,-168.13267 c 0,-0.0469 -0.0234,-0.10547 -0.0937,-0.10547 -0.11718,0 -0.51562,0.39844 -0.67968,0.69141 -0.22266,-0.53907 -0.60938,-0.70313 -0.92578,-0.70313 -1.17188,0 -2.40235,1.47656 -2.40235,2.91797 0,0.98437 0.58594,1.59375 1.3125,1.59375 0.4336,0 0.82031,-0.23438 1.1836,-0.59766 -0.0937,0.35157 -0.42188,1.69922 -0.45704,1.79297 -0.082,0.26953 -0.15234,0.31641 -0.71484,0.32813 -0.12891,0 -0.22266,0 -0.22266,0.19922 0,0 0,0.10546 0.12891,0.10546 0.31641,0 0.66797,-0.0351 0.99609,-0.0351 0.32813,0 0.69141,0.0351 1.01954,0.0351 0.0469,0 0.17578,0 0.17578,-0.19921 0,-0.10547 -0.0937,-0.10547 -0.25782,-0.10547 -0.46875,0 -0.46875,-0.0703 -0.46875,-0.16407 0,-0.0703 0.0117,-0.1289 0.0352,-0.22265 z m -2.7539,4.18359 c -0.59766,0 -0.64453,-0.77344 -0.64453,-0.9375 0,-0.48047 0.29297,-1.57031 0.45703,-1.98047 0.3164,-0.73828 0.83203,-1.16015 1.24219,-1.16015 0.64453,0 0.78515,0.80859 0.78515,0.8789 0,0.0586 -0.55078,2.23828 -0.57422,2.27344 -0.15234,0.28125 -0.71484,0.92578 -1.26562,0.92578 z m 0,0"
         style="fill:#000000;fill-opacity:1;fill-rule:nonzero;stroke:none" />
      <path
         id="path17"
         d="m 185.5663,-163.61216 h -0.23437 c -0.0234,0.15234 -0.082,0.5625 -0.17578,0.63281 -0.0586,0.0352 -0.59766,0.0352 -0.69141,0.0352 h -1.28906 c 0.73828,-0.64453 0.98437,-0.84375 1.39453,-1.17187 0.51563,-0.41016 0.99609,-0.84375 0.99609,-1.5 0,-0.84375 -0.73828,-1.35938 -1.6289,-1.35938 -0.86719,0 -1.45313,0.60938 -1.45313,1.24219 0,0.36328 0.30469,0.39844 0.375,0.39844 0.16407,0 0.375,-0.11719 0.375,-0.375 0,-0.12891 -0.0586,-0.36328 -0.42187,-0.36328 0.22265,-0.50391 0.6914,-0.65625 1.01953,-0.65625 0.70312,0 1.06641,0.55078 1.06641,1.11328 0,0.60937 -0.4336,1.08984 -0.65625,1.33594 l -1.6875,1.66406 c -0.0703,0.0586 -0.0703,0.0703 -0.0703,0.26953 h 2.88282 z m 0,0"
         style="fill:#000000;fill-opacity:1;fill-rule:nonzero;stroke:none" />
    </g>
  </g>
</svg>
