<?xml version="1.0" encoding="UTF-8" standalone="no"?>
<!-- Created with Inkscape (http://www.inkscape.org/) -->

<svg
   version="1.1"
   id="svg1"
   width="400"
   height="300"
   viewBox="0 0 400 300"
   sodipodi:docname="two-pion-loop.svg"
   inkscape:version="1.4 (86a8ad7, 2024-10-11)"
   xmlns:inkscape="http://www.inkscape.org/namespaces/inkscape"
   xmlns:sodipodi="http://sodipodi.sourceforge.net/DTD/sodipodi-0.dtd"
   xmlns="http://www.w3.org/2000/svg"
   xmlns:svg="http://www.w3.org/2000/svg">
  <defs
     id="defs1" />
  <sodipodi:namedview
     id="namedview1"
     pagecolor="#ffffff"
     bordercolor="#000000"
     borderopacity="0.25"
     inkscape:showpageshadow="2"
     inkscape:pageopacity="0.0"
     inkscape:pagecheckerboard="0"
     inkscape:deskcolor="#d1d1d1"
     inkscape:zoom="1.5359848"
     inkscape:cx="168.94698"
     inkscape:cy="176.10851"
     inkscape:window-width="1920"
     inkscape:window-height="1046"
     inkscape:window-x="-11"
     inkscape:window-y="-11"
     inkscape:window-maximized="1"
     inkscape:current-layer="g12">
    <inkscape:page
       x="0"
       y="0"
       inkscape:label="1"
       id="page1"
       width="400"
       height="300"
       margin="0"
       bleed="0" />
  </sodipodi:namedview>
  <g
     id="g1"
     inkscape:groupmode="layer"
     inkscape:label="1">
    <path
       id="path1"
       d="M 68.389916,249.70678 155.18046,152.06596"
       style="fill:none;stroke:#000000;stroke-width:1.32835;stroke-linecap:round;stroke-linejoin:round;stroke-miterlimit:10;stroke-dasharray:none;stroke-opacity:1" />
    <path
       id="path2"
       d="m 111.70398,206.86726 6.7772,-13.51404 -12.62612,8.31507 z"
       style="fill:#000000;fill-opacity:1;fill-rule:nonzero;stroke:none;stroke-width:1.33333" />
    <path
       id="path3"
       d="m 68.389916,50.45446 86.790544,97.64079"
       style="fill:none;stroke:#000000;stroke-width:1.32835;stroke-linecap:round;stroke-linejoin:round;stroke-miterlimit:10;stroke-dasharray:none;stroke-opacity:1" />
    <path
       id="path4"
       d="m 105.85506,98.49293 12.62612,8.31507 -6.7772,-13.51404 z"
       style="fill:#000000;fill-opacity:1;fill-rule:nonzero;stroke:none;stroke-width:1.33333" />
    <path
       id="path5"
       d="m 157.02345,147.42553 c 1.37316,-23.21768 20.6369,-41.62252 44.19932,-41.62252 23.56244,0 42.82617,18.40484 44.19931,41.62255"
       style="fill:none;stroke:#000000;stroke-width:1.32835;stroke-linecap:round;stroke-linejoin:round;stroke-miterlimit:10;stroke-dasharray:none;stroke-opacity:1" />
    <path
       id="path6"
       d="m 245.42208,152.73569 c -1.37314,23.21769 -20.63689,41.62252 -44.19931,41.62252 -23.56243,0 -42.82616,-18.40483 -44.19932,-41.62253"
       style="fill:none;stroke:#000000;stroke-width:1.32835;stroke-linecap:round;stroke-linejoin:round;stroke-miterlimit:10;stroke-dasharray:none;stroke-opacity:1" />
    <path
       id="path7"
       d="m 247.26508,152.06598 86.79051,97.6408"
       style="fill:none;stroke:#000000;stroke-width:1.32835;stroke-linecap:round;stroke-linejoin:round;stroke-miterlimit:10;stroke-dasharray:none;stroke-opacity:1" />
    <path
       id="path8"
       d="m 284.73022,200.10446 12.62612,8.31507 -6.7772,-13.51404 z"
       style="fill:#000000;fill-opacity:1;fill-rule:nonzero;stroke:none;stroke-width:1.33333" />
    <path
       id="path9"
       d="M 247.26508,148.09528 334.05559,50.45446"
       style="fill:none;stroke:#000000;stroke-width:1.32835;stroke-linecap:round;stroke-linejoin:round;stroke-miterlimit:10;stroke-dasharray:none;stroke-opacity:1" />
    <path
       id="path10"
       d="m 290.57914,105.25576 6.7772,-13.51404 -12.62612,8.31506 z"
       style="fill:#000000;fill-opacity:1;fill-rule:nonzero;stroke:none;stroke-width:1.33333" />
    <path
       id="path11"
       d="m 159.60186,150.0806 c 0,-0.70463 -0.27995,-1.38031 -0.77816,-1.87854 -0.49823,-0.49821 -1.17391,-0.77816 -1.87853,-0.77816 -0.70463,0 -1.38031,0.27995 -1.87855,0.77816 -0.4982,0.49823 -0.77815,1.17391 -0.77815,1.87854 0,0.70464 0.27995,1.38032 0.77815,1.87854 0.49824,0.49822 1.17392,0.77816 1.87855,0.77816 0.70462,0 1.3803,-0.27994 1.87853,-0.77816 0.49821,-0.49822 0.77816,-1.1739 0.77816,-1.87854 z"
       style="fill:#000000;fill-opacity:1;fill-rule:nonzero;stroke:#000000;stroke-width:1.32835;stroke-linecap:round;stroke-linejoin:round;stroke-miterlimit:10;stroke-dasharray:none;stroke-opacity:1" />
    <path
       id="path12"
       d="m 248.15707,150.08062 c 0,-0.70464 -0.27995,-1.3803 -0.77815,-1.87853 -0.49824,-0.49821 -1.1739,-0.77816 -1.87854,-0.77816 -0.70463,0 -1.38031,0.27995 -1.87854,0.77816 -0.49821,0.49823 -0.77816,1.17389 -0.77816,1.87853 0,0.70463 0.27995,1.38031 0.77816,1.87855 0.49823,0.4982 1.17391,0.77815 1.87854,0.77815 0.70464,0 1.3803,-0.27995 1.87854,-0.77815 0.4982,-0.49824 0.77815,-1.17392 0.77815,-1.87855 z"
       style="fill:#000000;fill-opacity:1;fill-rule:nonzero;stroke:#000000;stroke-width:1.32835;stroke-linecap:round;stroke-linejoin:round;stroke-miterlimit:10;stroke-dasharray:none;stroke-opacity:1" />
    <g
       id="g12"
       aria-label="p&#10;1&#10;p&#10;2&#10;q&#10;1&#10;q&#10;2&#10;k&#10;l=p&#10;1&#10;+p&#10;2&#10;−k&#10;1"
       transform="matrix(1.3333333,0,0,1.3333333,212.476,376.15733)">
      <path
         id="path13"
         d="m -121.8819,-85.74398 c -0.082,0.339844 -0.0937,0.410156 -0.53907,0.410156 -0.11718,0 -0.22265,0 -0.22265,0.1875 0,0.08203 0.0469,0.117188 0.1289,0.117188 0.26954,0 0.55079,-0.03516 0.83204,-0.03516 0.32812,0 0.66796,0.03516 0.98437,0.03516 0.0586,0 0.1875,0 0.1875,-0.199219 0,-0.105469 -0.10547,-0.105469 -0.24609,-0.105469 -0.49219,0 -0.49219,-0.07031 -0.49219,-0.164062 0,-0.117188 0.42187,-1.746094 0.48047,-1.992188 0.14062,0.292969 0.41015,0.632813 0.92578,0.632813 1.14844,0 2.40234,-1.453125 2.40234,-2.917969 0,-0.9375 -0.57422,-1.59375 -1.33593,-1.59375 -0.49219,0 -0.97266,0.363281 -1.30079,0.75 -0.0937,-0.539062 -0.52734,-0.75 -0.89062,-0.75 -0.45703,0 -0.65625,0.386719 -0.73828,0.574219 -0.1875,0.339844 -0.31641,0.9375 -0.31641,0.960937 0,0.105469 0.10547,0.105469 0.12891,0.105469 0.0937,0 0.10547,-0.01172 0.16406,-0.234375 0.16406,-0.703125 0.36328,-1.183594 0.72656,-1.183594 0.17578,0 0.30469,0.08203 0.30469,0.457032 0,0.234375 -0.0234,0.339843 -0.0703,0.503906 z m 1.75781,-4.324219 c 0.0703,-0.269531 0.33984,-0.550781 0.51562,-0.703125 0.35157,-0.304687 0.63282,-0.375 0.8086,-0.375 0.39844,0 0.63281,0.351563 0.63281,0.9375 0,0.585938 -0.32812,1.734375 -0.50391,2.109375 -0.33984,0.703125 -0.82031,1.03125 -1.18359,1.03125 -0.65625,0 -0.78516,-0.832031 -0.78516,-0.890625 0,-0.02344 0,-0.03516 0.0234,-0.164062 z m 0,0"
         style="fill:#000000;fill-opacity:1;fill-rule:nonzero;stroke:none" />
      <path
         id="path14"
         d="m -114.98249,-89.898277 c 0,-0.1875 -0.0117,-0.199218 -0.21094,-0.199218 -0.44531,0.433593 -1.07812,0.445312 -1.35937,0.445312 v 0.246094 c 0.16406,0 0.62109,0 1.00781,-0.1875 v 3.550781 c 0,0.234375 0,0.328125 -0.69141,0.328125 h -0.26953 v 0.246094 c 0.12891,-0.01172 0.98438,-0.02344 1.24219,-0.02344 0.21094,0 1.08984,0.01172 1.24219,0.02344 v -0.246094 h -0.25781 c -0.70313,0 -0.70313,-0.09375 -0.70313,-0.328125 z m 0,0"
         style="fill:#000000;fill-opacity:1;fill-rule:nonzero;stroke:none" />
      <path
         id="path15"
         d="m -121.8819,-248.58187 c -0.082,0.33984 -0.0937,0.41015 -0.53907,0.41015 -0.11718,0 -0.22265,0 -0.22265,0.1875 0,0.082 0.0469,0.11719 0.1289,0.11719 0.26954,0 0.55079,-0.0352 0.83204,-0.0352 0.32812,0 0.66796,0.0352 0.98437,0.0352 0.0586,0 0.1875,0 0.1875,-0.19922 0,-0.10547 -0.10547,-0.10547 -0.24609,-0.10547 -0.49219,0 -0.49219,-0.0703 -0.49219,-0.16406 0,-0.11719 0.42187,-1.74609 0.48047,-1.99219 0.14062,0.29297 0.41015,0.63282 0.92578,0.63282 1.14844,0 2.40234,-1.45313 2.40234,-2.91797 0,-0.9375 -0.57422,-1.59375 -1.33593,-1.59375 -0.49219,0 -0.97266,0.36328 -1.30079,0.75 -0.0937,-0.53907 -0.52734,-0.75 -0.89062,-0.75 -0.45703,0 -0.65625,0.38672 -0.73828,0.57422 -0.1875,0.33984 -0.31641,0.9375 -0.31641,0.96093 0,0.10547 0.10547,0.10547 0.12891,0.10547 0.0937,0 0.10547,-0.0117 0.16406,-0.23437 0.16406,-0.70313 0.36328,-1.1836 0.72656,-1.1836 0.17578,0 0.30469,0.082 0.30469,0.45703 0,0.23438 -0.0234,0.33985 -0.0703,0.50391 z m 1.75781,-4.32422 c 0.0703,-0.26953 0.33984,-0.55078 0.51562,-0.70313 0.35157,-0.30468 0.63282,-0.375 0.8086,-0.375 0.39844,0 0.63281,0.35157 0.63281,0.9375 0,0.58594 -0.32812,1.73438 -0.50391,2.10938 -0.33984,0.70312 -0.82031,1.03125 -1.18359,1.03125 -0.65625,0 -0.78516,-0.83203 -0.78516,-0.89063 0,-0.0234 0,-0.0351 0.0234,-0.16406 z m 0,0"
         style="fill:#000000;fill-opacity:1;fill-rule:nonzero;stroke:none" />
      <path
         id="path16"
         d="m -113.7989,-249.57211 h -0.23437 c -0.0234,0.15235 -0.082,0.5625 -0.17578,0.63282 -0.0586,0.0352 -0.59766,0.0352 -0.69141,0.0352 h -1.28906 c 0.73828,-0.64453 0.98437,-0.84375 1.39453,-1.17187 0.51563,-0.41016 0.99609,-0.84375 0.99609,-1.5 0,-0.84375 -0.73828,-1.35938 -1.6289,-1.35938 -0.86719,0 -1.45313,0.60938 -1.45313,1.24219 0,0.36328 0.30469,0.39844 0.375,0.39844 0.16407,0 0.375,-0.11719 0.375,-0.375 0,-0.12891 -0.0586,-0.36328 -0.42187,-0.36328 0.22265,-0.50391 0.6914,-0.65625 1.01953,-0.65625 0.70312,0 1.06641,0.55078 1.06641,1.11328 0,0.60937 -0.4336,1.08984 -0.65625,1.33593 l -1.6875,1.66407 c -0.0703,0.0586 -0.0703,0.0703 -0.0703,0.26953 h 2.88282 z m 0,0"
         style="fill:#000000;fill-opacity:1;fill-rule:nonzero;stroke:none" />
      <path
         id="path17"
         d="m 100.46673,-91.251792 c 0,-0.04687 -0.0234,-0.105469 -0.0937,-0.105469 -0.11719,0 -0.515628,0.398437 -0.679688,0.691406 -0.22266,-0.539062 -0.60938,-0.703125 -0.92578,-0.703125 -1.17188,0 -2.40235,1.476563 -2.40235,2.917969 0,0.984375 0.58594,1.59375 1.3125,1.59375 0.4336,0 0.82032,-0.234375 1.1836,-0.597656 -0.0937,0.351562 -0.42188,1.699218 -0.45703,1.792968 -0.082,0.269532 -0.15235,0.316407 -0.71485,0.328125 -0.1289,0 -0.22265,0 -0.22265,0.199219 0,0 0,0.105469 0.1289,0.105469 0.31641,0 0.66797,-0.03516 0.9961,-0.03516 0.32812,0 0.6914,0.03516 1.01953,0.03516 0.0469,0 0.17578,0 0.17578,-0.199219 0,-0.105469 -0.0937,-0.105469 -0.25781,-0.105469 -0.46875,0 -0.46875,-0.07031 -0.46875,-0.164062 0,-0.07031 0.0117,-0.128906 0.0352,-0.222656 z m -2.753908,4.183593 c -0.59766,0 -0.64453,-0.773437 -0.64453,-0.9375 0,-0.480468 0.29297,-1.570312 0.45703,-1.980468 0.31641,-0.738282 0.83203,-1.160157 1.24219,-1.160157 0.64453,0 0.78515,0.808594 0.78515,0.878907 0,0.05859 -0.55078,2.238281 -0.57421,2.273437 -0.15235,0.28125 -0.71485,0.925781 -1.26563,0.925781 z m 0,0"
         style="fill:#000000;fill-opacity:1;fill-rule:nonzero;stroke:none" />
      <path
         id="path18"
         d="m 102.74602,-89.898277 c 0,-0.1875 -0.0117,-0.199218 -0.21093,-0.199218 -0.44532,0.433593 -1.07813,0.445312 -1.35938,0.445312 v 0.246094 c 0.16406,0 0.6211,0 1.00781,-0.1875 v 3.550781 c 0,0.234375 0,0.328125 -0.6914,0.328125 h -0.26953 v 0.246094 c 0.1289,-0.01172 0.98437,-0.02344 1.24218,-0.02344 0.21094,0 1.08985,0.01172 1.24219,0.02344 v -0.246094 h -0.25781 c -0.70313,0 -0.70313,-0.09375 -0.70313,-0.328125 z m 0,0"
         style="fill:#000000;fill-opacity:1;fill-rule:nonzero;stroke:none" />
      <path
         id="path19"
         d="m 100.46673,-254.08969 c 0,-0.0469 -0.0234,-0.10546 -0.0937,-0.10546 -0.11719,0 -0.515628,0.39843 -0.679688,0.6914 -0.22266,-0.53906 -0.60938,-0.70312 -0.92578,-0.70312 -1.17188,0 -2.40235,1.47656 -2.40235,2.91797 0,0.98437 0.58594,1.59375 1.3125,1.59375 0.4336,0 0.82032,-0.23438 1.1836,-0.59766 -0.0937,0.35156 -0.42188,1.69922 -0.45703,1.79297 -0.082,0.26953 -0.15235,0.3164 -0.71485,0.32812 -0.1289,0 -0.22265,0 -0.22265,0.19922 0,0 0,0.10547 0.1289,0.10547 0.31641,0 0.66797,-0.0352 0.9961,-0.0352 0.32812,0 0.6914,0.0352 1.01953,0.0352 0.0469,0 0.17578,0 0.17578,-0.19922 0,-0.10547 -0.0937,-0.10547 -0.25781,-0.10547 -0.46875,0 -0.46875,-0.0703 -0.46875,-0.16406 0,-0.0703 0.0117,-0.12891 0.0352,-0.22266 z m -2.753908,4.1836 c -0.59766,0 -0.64453,-0.77344 -0.64453,-0.9375 0,-0.48047 0.29297,-1.57031 0.45703,-1.98047 0.31641,-0.73828 0.83203,-1.16016 1.24219,-1.16016 0.64453,0 0.78515,0.8086 0.78515,0.87891 0,0.0586 -0.55078,2.23828 -0.57421,2.27344 -0.15235,0.28125 -0.71485,0.92578 -1.26563,0.92578 z m 0,0"
         style="fill:#000000;fill-opacity:1;fill-rule:nonzero;stroke:none" />
      <path
         id="path20"
         d="m 103.92962,-249.57211 h -0.23438 c -0.0234,0.15235 -0.082,0.5625 -0.17578,0.63282 -0.0586,0.0352 -0.59765,0.0352 -0.6914,0.0352 h -1.28907 c 0.73828,-0.64453 0.98438,-0.84375 1.39453,-1.17187 0.51563,-0.41016 0.9961,-0.84375 0.9961,-1.5 0,-0.84375 -0.73828,-1.35938 -1.62891,-1.35938 -0.86719,0 -1.45312,0.60938 -1.45312,1.24219 0,0.36328 0.30468,0.39844 0.375,0.39844 0.16406,0 0.375,-0.11719 0.375,-0.375 0,-0.12891 -0.0586,-0.36328 -0.42188,-0.36328 0.22266,-0.50391 0.69141,-0.65625 1.01953,-0.65625 0.70313,0 1.06641,0.55078 1.06641,1.11328 0,0.60937 -0.43359,1.08984 -0.65625,1.33593 l -1.6875,1.66407 c -0.0703,0.0586 -0.0703,0.0703 -0.0703,0.26953 h 2.88281 z m 0,0"
         style="fill:#000000;fill-opacity:1;fill-rule:nonzero;stroke:none" />
      <path
         id="path21"
         d="m -50.265693,-172.90804 c 0,0 0,-0.10547 -0.128906,-0.10547 -0.234375,0 -0.960937,0.082 -1.21875,0.10547 -0.08203,0 -0.1875,0.0117 -0.1875,0.19922 0,0.11718 0.09375,0.11718 0.234375,0.11718 0.480469,0 0.503906,0.0703 0.503906,0.16407 l -0.03516,0.19922 -1.441406,5.74218 c -0.03516,0.14063 -0.03516,0.15235 -0.03516,0.22266 0,0.22266 0.199218,0.26953 0.28125,0.26953 0.128906,0 0.28125,-0.082 0.339843,-0.21094 0.05859,-0.082 0.503907,-1.92187 0.5625,-2.17968 0.339844,0.0352 1.160157,0.1875 1.160157,0.85546 0,0.0703 0,0.10547 -0.03516,0.19922 -0.02344,0.12891 -0.03516,0.2461 -0.03516,0.35157 0,0.58593 0.398438,0.98437 0.914063,0.98437 0.292968,0 0.5625,-0.15234 0.785156,-0.52734 0.246094,-0.4336 0.363281,-0.98438 0.363281,-1.00782 0,-0.0937 -0.09375,-0.0937 -0.128906,-0.0937 -0.09375,0 -0.105469,0.0352 -0.140625,0.17579 -0.199219,0.72656 -0.421875,1.24218 -0.867188,1.24218 -0.1875,0 -0.316406,-0.11718 -0.316406,-0.46875 0,-0.17578 0.04687,-0.39843 0.08203,-0.5625 0.03516,-0.16406 0.03516,-0.21093 0.03516,-0.30468 0,-0.65625 -0.621094,-0.9375 -1.464844,-1.05469 0.304687,-0.17578 0.621094,-0.49219 0.855469,-0.72656 0.480468,-0.52735 0.9375,-0.96094 1.417968,-0.96094 0.05859,0 0.07031,0 0.09375,0.0117 0.117188,0.0234 0.128907,0.0234 0.210938,0.082 0.02344,0 0.02344,0.0117 0.03516,0.0352 -0.480469,0.0352 -0.5625,0.42187 -0.5625,0.53906 0,0.16406 0.105469,0.35156 0.375,0.35156 0.257813,0 0.550781,-0.22265 0.550781,-0.60937 0,-0.30469 -0.234375,-0.63281 -0.679687,-0.63281 -0.28125,0 -0.738281,0.082 -1.453125,0.8789 -0.339844,0.375 -0.726563,0.77344 -1.101563,0.92578 z m 83.578125,-0.96973 c 0,0 0,-0.10547 -0.12891,-0.10547 -0.22265,0 -0.94921,0.082 -1.20703,0.10547 -0.082,0 -0.19922,0.0117 -0.19922,0.19922 0,0.11719 0.10547,0.11719 0.25782,0.11719 0.46875,0 0.48047,0.082 0.48047,0.16406 l -0.0234,0.19922 -1.25391,4.98047 c -0.0352,0.11718 -0.0586,0.1875 -0.0586,0.33984 0,0.57422 0.44531,0.91406 0.91406,0.91406 0.32813,0 0.57422,-0.19922 0.75,-0.55078 0.17578,-0.38672 0.29297,-0.96094 0.29297,-0.98437 0,-0.0937 -0.0937,-0.0937 -0.11719,-0.0937 -0.10547,0 -0.11719,0.0352 -0.14062,0.17578 -0.17578,0.64453 -0.36328,1.24219 -0.76172,1.24219 -0.29297,0 -0.29297,-0.32813 -0.29297,-0.45704 0,-0.24609 0.0117,-0.29296 0.0586,-0.48046 z m 0,0"
         style="fill:#000000;fill-opacity:1;fill-rule:nonzero;stroke:none" />
      <path
         id="path22"
         d="m 43.525322,-170.32699 c 0.15234,0 0.33984,0 0.33984,-0.19922 0,-0.19922 -0.1875,-0.19922 -0.32812,-0.19922 h -5.96484 c -0.14063,0 -0.32813,0 -0.32813,0.19922 0,0.19922 0.1875,0.19922 0.33984,0.19922 z m 0.0117,1.9336 c 0.14062,0 0.32812,0 0.32812,-0.19922 0,-0.19922 -0.1875,-0.19922 -0.33984,-0.19922 h -5.94141 c -0.15234,0 -0.33984,0 -0.33984,0.19922 0,0.19922 0.1875,0.19922 0.32813,0.19922 z m 0,0"
         style="fill:#000000;fill-opacity:1;fill-rule:nonzero;stroke:none" />
      <path
         id="path23"
         d="m 47.644462,-165.85043 c -0.082,0.33985 -0.0937,0.41016 -0.53906,0.41016 -0.11719,0 -0.22266,0 -0.22266,0.1875 0,0.082 0.0469,0.11719 0.12891,0.11719 0.26953,0 0.55078,-0.0352 0.83203,-0.0352 0.32813,0 0.66797,0.0352 0.98438,0.0352 0.0586,0 0.1875,0 0.1875,-0.19922 0,-0.10547 -0.10547,-0.10547 -0.2461,-0.10547 -0.49219,0 -0.49219,-0.0703 -0.49219,-0.16406 0,-0.11719 0.42188,-1.7461 0.48047,-1.99219 0.14063,0.29297 0.41016,0.63281 0.92578,0.63281 1.14844,0 2.40235,-1.45312 2.40235,-2.91797 0,-0.9375 -0.57422,-1.59375 -1.33594,-1.59375 -0.49219,0 -0.97266,0.36329 -1.30078,0.75 -0.0937,-0.53906 -0.52734,-0.75 -0.89063,-0.75 -0.45703,0 -0.65625,0.38672 -0.73828,0.57422 -0.1875,0.33985 -0.3164,0.9375 -0.3164,0.96094 0,0.10547 0.10547,0.10547 0.1289,0.10547 0.0937,0 0.10547,-0.0117 0.16407,-0.23438 0.16406,-0.70312 0.36328,-1.18359 0.72656,-1.18359 0.17578,0 0.30469,0.082 0.30469,0.45703 0,0.23438 -0.0234,0.33985 -0.0703,0.50391 z m 1.75781,-4.32421 c 0.0703,-0.26954 0.33985,-0.55079 0.51563,-0.70313 0.35156,-0.30469 0.63281,-0.375 0.80859,-0.375 0.39844,0 0.63282,0.35156 0.63282,0.9375 0,0.58594 -0.32813,1.73438 -0.50391,2.10938 -0.33984,0.70312 -0.82031,1.03125 -1.18359,1.03125 -0.65625,0 -0.78516,-0.83204 -0.78516,-0.89063 0,-0.0234 0,-0.0352 0.0234,-0.16406 z m 0,0"
         style="fill:#000000;fill-opacity:1;fill-rule:nonzero;stroke:none" />
      <path
         id="path24"
         d="m 54.543882,-170.00179 c 0,-0.1875 -0.0117,-0.19922 -0.21094,-0.19922 -0.44531,0.43359 -1.07813,0.44531 -1.35938,0.44531 v 0.2461 c 0.16407,0 0.6211,0 1.00782,-0.1875 v 3.55078 c 0,0.23437 0,0.32812 -0.69141,0.32812 h -0.26953 v 0.2461 c 0.1289,-0.0117 0.98437,-0.0234 1.24219,-0.0234 0.21093,0 1.08984,0.0117 1.24218,0.0234 v -0.2461 h -0.25781 c -0.70312,0 -0.70312,-0.0937 -0.70312,-0.32812 z m 0,0"
         style="fill:#000000;fill-opacity:1;fill-rule:nonzero;stroke:none" />
      <path
         id="path25"
         d="m 62.972592,-169.36605 h 2.77734 c 0.14063,0 0.32813,0 0.32813,-0.19922 0,-0.19922 -0.1875,-0.19922 -0.32813,-0.19922 h -2.77734 v -2.78906 c 0,-0.12891 0,-0.32813 -0.19922,-0.32813 -0.19922,0 -0.19922,0.19922 -0.19922,0.32813 v 2.78906 h -2.78906 c -0.14063,0 -0.32813,0 -0.32813,0.19922 0,0.19922 0.1875,0.19922 0.32813,0.19922 h 2.78906 v 2.80078 c 0,0.12891 0,0.32813 0.19922,0.32813 0.19922,0 0.19922,-0.19922 0.19922,-0.32813 z m 0,0"
         style="fill:#000000;fill-opacity:1;fill-rule:nonzero;stroke:none" />
      <path
         id="path26"
         d="m 69.303642,-165.85043 c -0.082,0.33985 -0.0937,0.41016 -0.53906,0.41016 -0.11719,0 -0.22266,0 -0.22266,0.1875 0,0.082 0.0469,0.11719 0.12891,0.11719 0.26953,0 0.55078,-0.0352 0.83203,-0.0352 0.32812,0 0.66797,0.0352 0.98437,0.0352 0.0586,0 0.1875,0 0.1875,-0.19922 0,-0.10547 -0.10546,-0.10547 -0.24609,-0.10547 -0.49219,0 -0.49219,-0.0703 -0.49219,-0.16406 0,-0.11719 0.42188,-1.7461 0.48047,-1.99219 0.14063,0.29297 0.41016,0.63281 0.92578,0.63281 1.14844,0 2.40235,-1.45312 2.40235,-2.91797 0,-0.9375 -0.57422,-1.59375 -1.33594,-1.59375 -0.49219,0 -0.97266,0.36329 -1.30078,0.75 -0.0937,-0.53906 -0.52735,-0.75 -0.89063,-0.75 -0.45703,0 -0.65625,0.38672 -0.73828,0.57422 -0.1875,0.33985 -0.3164,0.9375 -0.3164,0.96094 0,0.10547 0.10546,0.10547 0.1289,0.10547 0.0937,0 0.10547,-0.0117 0.16406,-0.23438 0.16407,-0.70312 0.36329,-1.18359 0.72657,-1.18359 0.17578,0 0.30468,0.082 0.30468,0.45703 0,0.23438 -0.0234,0.33985 -0.0703,0.50391 z m 1.75781,-4.32421 c 0.0703,-0.26954 0.33985,-0.55079 0.51563,-0.70313 0.35156,-0.30469 0.63281,-0.375 0.80859,-0.375 0.39844,0 0.63281,0.35156 0.63281,0.9375 0,0.58594 -0.32812,1.73438 -0.5039,2.10938 -0.33985,0.70312 -0.82031,1.03125 -1.1836,1.03125 -0.65625,0 -0.78515,-0.83204 -0.78515,-0.89063 0,-0.0234 0,-0.0352 0.0234,-0.16406 z m 0,0"
         style="fill:#000000;fill-opacity:1;fill-rule:nonzero;stroke:none" />
      <path
         id="path27"
         d="m 77.383722,-166.83773 h -0.23438 c -0.0234,0.15234 -0.082,0.5625 -0.17578,0.63281 -0.0586,0.0352 -0.59765,0.0352 -0.6914,0.0352 h -1.28907 c 0.73829,-0.64453 0.98438,-0.84375 1.39454,-1.17187 0.51562,-0.41016 0.99609,-0.84375 0.99609,-1.5 0,-0.84375 -0.73828,-1.35938 -1.62891,-1.35938 -0.86718,0 -1.45312,0.60938 -1.45312,1.24219 0,0.36328 0.30469,0.39844 0.375,0.39844 0.16406,0 0.375,-0.11719 0.375,-0.375 0,-0.12891 -0.0586,-0.36328 -0.42188,-0.36328 0.22266,-0.50391 0.69141,-0.65625 1.01953,-0.65625 0.70313,0 1.06641,0.55078 1.06641,1.11328 0,0.60937 -0.43359,1.08984 -0.65625,1.33594 l -1.6875,1.66406 c -0.0703,0.0586 -0.0703,0.0703 -0.0703,0.26953 h 2.88281 z m 0,0"
         style="fill:#000000;fill-opacity:1;fill-rule:nonzero;stroke:none" />
      <path
         id="path28"
         d="m 87.116142,-169.36605 c 0.17578,0 0.35156,0 0.35156,-0.19922 0,-0.19922 -0.17578,-0.19922 -0.35156,-0.19922 h -5.39062 c -0.16407,0 -0.33985,0 -0.33985,0.19922 0,0.19922 0.17578,0.19922 0.33985,0.19922 z m 0,0"
         style="fill:#000000;fill-opacity:1;fill-rule:nonzero;stroke:none" />
      <path
         id="path29"
         d="m 93.373952,-173.87777 c 0,0 0,-0.10547 -0.1289,-0.10547 -0.23438,0 -0.96094,0.082 -1.21875,0.10547 -0.082,0 -0.1875,0.0117 -0.1875,0.19922 0,0.11719 0.0937,0.11719 0.23437,0.11719 0.48047,0 0.50391,0.0703 0.50391,0.16406 l -0.0352,0.19922 -1.4414,5.74219 c -0.0352,0.14062 -0.0352,0.15234 -0.0352,0.22265 0,0.22266 0.19922,0.26953 0.28125,0.26953 0.12891,0 0.28125,-0.082 0.33984,-0.21093 0.0586,-0.082 0.50391,-1.92188 0.5625,-2.17969 0.33985,0.0352 1.16016,0.1875 1.16016,0.85547 0,0.0703 0,0.10547 -0.0352,0.19922 -0.0234,0.1289 -0.0352,0.24609 -0.0352,0.35156 0,0.58594 0.39843,0.98437 0.91406,0.98437 0.29297,0 0.5625,-0.15234 0.78516,-0.52734 0.24609,-0.43359 0.36328,-0.98438 0.36328,-1.00781 0,-0.0937 -0.0937,-0.0937 -0.12891,-0.0937 -0.0937,0 -0.10547,0.0352 -0.14062,0.17578 -0.19922,0.72656 -0.42188,1.24219 -0.86719,1.24219 -0.1875,0 -0.31641,-0.11719 -0.31641,-0.46875 0,-0.17579 0.0469,-0.39844 0.082,-0.5625 0.0352,-0.16407 0.0352,-0.21094 0.0352,-0.30469 0,-0.65625 -0.62109,-0.9375 -1.46484,-1.05469 0.30468,-0.17578 0.62109,-0.49219 0.85546,-0.72656 0.48047,-0.52735 0.9375,-0.96094 1.41797,-0.96094 0.0586,0 0.0703,0 0.0937,0.0117 0.11719,0.0234 0.12891,0.0234 0.21094,0.082 0.0234,0 0.0234,0.0117 0.0352,0.0352 -0.48047,0.0352 -0.5625,0.42188 -0.5625,0.53906 0,0.16407 0.10547,0.35157 0.375,0.35157 0.25781,0 0.55078,-0.22266 0.55078,-0.60938 0,-0.30469 -0.23438,-0.63281 -0.67969,-0.63281 -0.28125,0 -0.73828,0.082 -1.45312,0.8789 -0.33985,0.375 -0.72657,0.77344 -1.10157,0.92579 z m 0,0"
         style="fill:#000000;fill-opacity:1;fill-rule:nonzero;stroke:none" />
    </g>
  </g>
</svg>
