<?xml version="1.0" encoding="UTF-8" standalone="no"?>
<!-- Created with Inkscape (http://www.inkscape.org/) -->

<svg
   version="1.1"
   id="svg1"
   width="400"
   height="300"
   viewBox="0 0 400 300"
   sodipodi:docname="yukawa-nuclear-potential.svg"
   inkscape:version="1.4 (86a8ad7, 2024-10-11)"
   xmlns:inkscape="http://www.inkscape.org/namespaces/inkscape"
   xmlns:sodipodi="http://sodipodi.sourceforge.net/DTD/sodipodi-0.dtd"
   xmlns="http://www.w3.org/2000/svg"
   xmlns:svg="http://www.w3.org/2000/svg">
  <defs
     id="defs1" />
  <sodipodi:namedview
     id="namedview1"
     pagecolor="#ffffff"
     bordercolor="#000000"
     borderopacity="0.25"
     inkscape:showpageshadow="2"
     inkscape:pageopacity="0.0"
     inkscape:pagecheckerboard="0"
     inkscape:deskcolor="#d1d1d1"
     inkscape:zoom="3.0719697"
     inkscape:cx="223.14673"
     inkscape:cy="130.37238"
     inkscape:window-width="1920"
     inkscape:window-height="1046"
     inkscape:window-x="-11"
     inkscape:window-y="-11"
     inkscape:window-maximized="1"
     inkscape:current-layer="g12">
    <inkscape:page
       x="0"
       y="0"
       inkscape:label="1"
       id="page1"
       width="400"
       height="300"
       margin="0"
       bleed="0" />
  </sodipodi:namedview>
  <g
     id="g1"
     inkscape:groupmode="layer"
     inkscape:label="1">
    <path
       id="path1"
       d="m 100.83736,229.6983 48.40533,-77.44739"
       style="fill:none;stroke:#000000;stroke-width:1.32835;stroke-linecap:round;stroke-linejoin:round;stroke-miterlimit:10;stroke-dasharray:none;stroke-opacity:1" />
    <path
       id="path2"
       d="m 125.9602,196.88475 4.42153,-14.45677 -11.05748,10.30924 z"
       style="fill:#000000;fill-opacity:1;fill-rule:nonzero;stroke:none;stroke-width:1.33333" />
    <path
       id="path3"
       d="M 300.08967,229.6983 251.68402,152.25103"
       style="fill:none;stroke:#000000;stroke-width:1.32835;stroke-linecap:round;stroke-linejoin:round;stroke-miterlimit:10;stroke-dasharray:none;stroke-opacity:1" />
    <path
       id="path4"
       d="m 281.60263,192.73728 -11.05754,-10.30918 4.4216,14.45672 z"
       style="fill:#000000;fill-opacity:1;fill-rule:nonzero;stroke:none;stroke-width:1.33333" />
    <path
       id="path5"
       d="m 153.30762,149.99866 94.31127,1.2e-4"
       style="fill:none;stroke:#000000;stroke-width:1.32835;stroke-linecap:round;stroke-linejoin:round;stroke-miterlimit:10;stroke-dasharray:none;stroke-opacity:1" />
    <path
       id="path6"
       d="m 195.93869,153.91142 14.60212,-3.91271 -14.60212,-3.91269 z"
       style="fill:#000000;fill-opacity:1;fill-rule:nonzero;stroke:none;stroke-width:1.33333" />
    <path
       id="path7"
       d="M 149.24269,147.74639 100.83736,70.298888"
       style="fill:none;stroke:#000000;stroke-width:1.32835;stroke-linecap:round;stroke-linejoin:round;stroke-miterlimit:10;stroke-dasharray:none;stroke-opacity:1" />
    <path
       id="path8"
       d="m 130.75581,110.78531 -11.05749,-10.30924 4.4215,14.45679 z"
       style="fill:#000000;fill-opacity:1;fill-rule:nonzero;stroke:none;stroke-width:1.33333" />
    <path
       id="path9"
       d="M 251.68402,147.74651 300.08967,70.298888"
       style="fill:none;stroke:#000000;stroke-width:1.32835;stroke-linecap:round;stroke-linejoin:round;stroke-miterlimit:10;stroke-dasharray:none;stroke-opacity:1" />
    <path
       id="path10"
       d="m 276.80702,114.93291 4.42157,-14.45684 -11.05756,10.30931 z"
       style="fill:#000000;fill-opacity:1;fill-rule:nonzero;stroke:none;stroke-width:1.33333" />
    <path
       id="path11"
       d="m 153.30704,149.99866 c 0,-0.70464 -0.27995,-1.38031 -0.77815,-1.87855 -0.49824,-0.49821 -1.17392,-0.77816 -1.87855,-0.77816 -0.70462,0 -1.3803,0.27995 -1.87853,0.77816 -0.49821,0.49824 -0.77816,1.17391 -0.77816,1.87855 0,0.70463 0.27995,1.38031 0.77816,1.87853 0.49823,0.49822 1.17391,0.77816 1.87853,0.77816 0.70463,0 1.38031,-0.27994 1.87855,-0.77816 0.4982,-0.49822 0.77815,-1.1739 0.77815,-1.87853 z"
       style="fill:#000000;fill-opacity:1;fill-rule:nonzero;stroke:#000000;stroke-width:1.32835;stroke-linecap:round;stroke-linejoin:round;stroke-miterlimit:10;stroke-dasharray:none;stroke-opacity:1" />
    <path
       id="path12"
       d="m 252.93299,149.99878 c 0,-0.70464 -0.27994,-1.38031 -0.77816,-1.87855 -0.49822,-0.4982 -1.1739,-0.77814 -1.87853,-0.77814 -0.70463,0 -1.38031,0.27994 -1.87855,0.77814 -0.4982,0.49824 -0.77814,1.17391 -0.77814,1.87855 0,0.70463 0.27994,1.38031 0.77814,1.87853 0.49824,0.49822 1.17392,0.77816 1.87855,0.77816 0.70463,0 1.38031,-0.27994 1.87853,-0.77816 0.49822,-0.49822 0.77816,-1.1739 0.77816,-1.87853 z"
       style="fill:#000000;fill-opacity:1;fill-rule:nonzero;stroke:#000000;stroke-width:1.32835;stroke-linecap:round;stroke-linejoin:round;stroke-miterlimit:10;stroke-dasharray:none;stroke-opacity:1" />
    <g
       id="g12"
       aria-label="ψ(p&#10;1&#10;)ψ(p&#10;2&#10;)&#10;ψ(q&#10;1&#10;)ψ(q&#10;2&#10;)&#10;ϕ(k)&#10;1"
       transform="matrix(1.3333333,0,0,1.3333333,159.956,360.67067)">
      <path
         id="path13"
         d="m -68.278524,-93.678785 c 0.01172,-0.03516 0.02344,-0.09375 0.02344,-0.152344 0,-0.09375 -0.07031,-0.105469 -0.117188,-0.105469 -0.09375,0 -0.105469,0.02344 -0.152344,0.199219 l -1.652346,6.585938 c -0.75,-0.09375 -1.136719,-0.457032 -1.136719,-1.113282 0,-0.199218 0,-0.457031 0.539063,-1.851562 0.04687,-0.128906 0.117187,-0.292969 0.117187,-0.492188 0,-0.445312 -0.328125,-0.820312 -0.820312,-0.820312 -0.949219,0 -1.3125,1.453125 -1.3125,1.535156 0,0.105469 0.09375,0.105469 0.117187,0.105469 0.09375,0 0.105469,-0.02344 0.152344,-0.1875 0.269531,-0.9375 0.667969,-1.230469 1.007813,-1.230469 0.08203,0 0.257812,0 0.257812,0.316406 0,0.257813 -0.105469,0.515625 -0.234375,0.855469 -0.480469,1.253906 -0.480469,1.511719 -0.480469,1.6875 0,0.949219 0.785157,1.359375 1.734375,1.417969 -0.08203,0.351562 -0.08203,0.375 -0.222656,0.902344 -0.02344,0.105468 -0.222656,0.914062 -0.222656,0.949218 0,0.01172 0,0.09375 0.117187,0.09375 0.02344,0 0.07031,0 0.09375,-0.03516 0.02344,-0.02344 0.08203,-0.269531 0.117188,-0.410156 l 0.375,-1.488281 c 0.375,0 1.242187,0 2.179687,-1.066407 0.410157,-0.457031 0.621094,-0.890625 0.726563,-1.195312 0.09375,-0.246094 0.316406,-1.113281 0.316406,-1.546875 0,-0.5625 -0.269531,-0.703125 -0.445312,-0.703125 -0.246094,0 -0.492188,0.257812 -0.492188,0.480469 0,0.128906 0.05859,0.1875 0.152344,0.269531 0.105469,0.105469 0.351562,0.363281 0.351562,0.84375 0,0.644531 -0.515625,1.453125 -0.867187,1.816406 -0.878906,0.890625 -1.511719,0.890625 -1.875,0.890625 z m 0,0"
         style="fill:#000000;fill-opacity:1;fill-rule:nonzero;stroke:none" />
      <path
         id="path14"
         d="m -62.943563,-84.63191 c 0,-0.03516 0,-0.04687 -0.164063,-0.222656 -1.242187,-1.253907 -1.570312,-3.128907 -1.570312,-4.664063 0,-1.722656 0.386718,-3.457031 1.605469,-4.710937 0.128906,-0.117188 0.128906,-0.128907 0.128906,-0.164063 0,-0.07031 -0.03516,-0.105469 -0.09375,-0.105469 -0.105469,0 -0.996094,0.679688 -1.582032,1.945313 -0.515625,1.101562 -0.632812,2.203125 -0.632812,3.035156 0,0.785156 0.117187,1.992188 0.65625,3.117188 0.597656,1.21875 1.453125,1.875 1.558594,1.875 0.05859,0 0.09375,-0.03516 0.09375,-0.105469 z m 0,0"
         style="fill:#000000;fill-opacity:1;fill-rule:nonzero;stroke:none" />
      <path
         id="path15"
         d="m -61.918173,-85.803785 c -0.08203,0.339844 -0.09375,0.410156 -0.539062,0.410156 -0.117188,0 -0.222656,0 -0.222656,0.1875 0,0.08203 0.04687,0.117188 0.128906,0.117188 0.269531,0 0.550781,-0.03516 0.832031,-0.03516 0.328125,0 0.667969,0.03516 0.984375,0.03516 0.05859,0 0.1875,0 0.1875,-0.199219 0,-0.105469 -0.105469,-0.105469 -0.246094,-0.105469 -0.492187,0 -0.492187,-0.07031 -0.492187,-0.164062 0,-0.117188 0.421875,-1.746094 0.480469,-1.992188 0.140625,0.292969 0.410156,0.632813 0.925781,0.632813 1.148437,0 2.402344,-1.453125 2.402344,-2.917969 0,-0.9375 -0.574219,-1.59375 -1.335938,-1.59375 -0.492187,0 -0.972656,0.363281 -1.300781,0.75 -0.09375,-0.539063 -0.527344,-0.75 -0.890625,-0.75 -0.457031,0 -0.65625,0.386719 -0.738281,0.574219 -0.1875,0.339843 -0.316407,0.9375 -0.316407,0.960937 0,0.105469 0.105469,0.105469 0.128907,0.105469 0.09375,0 0.105468,-0.01172 0.164062,-0.234375 0.164063,-0.703125 0.363281,-1.183594 0.726563,-1.183594 0.175781,0 0.304687,0.08203 0.304687,0.457031 0,0.234375 -0.02344,0.339844 -0.07031,0.503907 z m 1.757813,-4.324219 c 0.07031,-0.269531 0.339844,-0.550781 0.515625,-0.703125 0.351562,-0.304687 0.632812,-0.375 0.808594,-0.375 0.398437,0 0.632812,0.351563 0.632812,0.9375 0,0.585938 -0.328125,1.734375 -0.503906,2.109375 -0.339844,0.703125 -0.820313,1.03125 -1.183594,1.03125 -0.65625,0 -0.785156,-0.832031 -0.785156,-0.890625 0,-0.02344 0,-0.03516 0.02344,-0.164062 z m 0,0"
         style="fill:#000000;fill-opacity:1;fill-rule:nonzero;stroke:none" />
      <path
         id="path16"
         d="m -55.018758,-89.958082 c 0,-0.1875 -0.01172,-0.199219 -0.210938,-0.199219 -0.445312,0.433594 -1.078125,0.445313 -1.359375,0.445313 v 0.246093 c 0.164063,0 0.621094,0 1.007813,-0.1875 v 3.550782 c 0,0.234375 0,0.328125 -0.691407,0.328125 h -0.269531 v 0.246093 c 0.128906,-0.01172 0.984375,-0.02344 1.242188,-0.02344 0.210937,0 1.089843,0.01172 1.242187,0.02344 v -0.246093 h -0.257812 c -0.703125,0 -0.703125,-0.09375 -0.703125,-0.328125 z m 0,0"
         style="fill:#000000;fill-opacity:1;fill-rule:nonzero;stroke:none" />
      <path
         id="path17"
         d="m -49.997274,-89.518629 c 0,-0.773437 -0.117188,-1.980469 -0.65625,-3.105469 -0.597656,-1.21875 -1.464844,-1.875 -1.558594,-1.875 -0.05859,0 -0.105469,0.04687 -0.105469,0.105469 0,0.03516 0,0.04687 0.199219,0.234375 0.972656,0.984375 1.535156,2.566406 1.535156,4.640625 0,1.710938 -0.363281,3.457031 -1.59375,4.722656 -0.140625,0.117188 -0.140625,0.128907 -0.140625,0.164063 0,0.05859 0.04687,0.105469 0.105469,0.105469 0.09375,0 0.996094,-0.679688 1.582031,-1.945313 0.503907,-1.101562 0.632813,-2.203125 0.632813,-3.046875 z m 0,0"
         style="fill:#000000;fill-opacity:1;fill-rule:nonzero;stroke:none" />
      <path
         id="path18"
         d="m 114.57499,-93.678785 c 0.0117,-0.03516 0.0234,-0.09375 0.0234,-0.152344 0,-0.09375 -0.0703,-0.105469 -0.11718,-0.105469 -0.0937,0 -0.10547,0.02344 -0.15235,0.199219 l -1.65231,6.585938 c -0.75,-0.09375 -1.13672,-0.457032 -1.13672,-1.113282 0,-0.199218 0,-0.457031 0.53906,-1.851562 0.0469,-0.128906 0.11719,-0.292969 0.11719,-0.492188 0,-0.445312 -0.32812,-0.820312 -0.82031,-0.820312 -0.94922,0 -1.3125,1.453125 -1.3125,1.535156 0,0.105469 0.0937,0.105469 0.11719,0.105469 0.0937,0 0.10546,-0.02344 0.15234,-0.1875 0.26953,-0.9375 0.66797,-1.230469 1.00781,-1.230469 0.082,0 0.25781,0 0.25781,0.316406 0,0.257813 -0.10546,0.515625 -0.23437,0.855469 -0.48047,1.253906 -0.48047,1.511719 -0.48047,1.6875 0,0.949219 0.78516,1.359375 1.73438,1.417969 -0.082,0.351562 -0.082,0.375 -0.22266,0.902344 -0.0234,0.105468 -0.22266,0.914062 -0.22266,0.949218 0,0.01172 0,0.09375 0.11719,0.09375 0.0234,0 0.0703,0 0.0937,-0.03516 0.0234,-0.02344 0.082,-0.269531 0.11719,-0.410156 l 0.375,-1.488281 c 0.375,0 1.24219,0 2.17969,-1.066407 0.41015,-0.457031 0.62109,-0.890625 0.72656,-1.195312 0.0937,-0.246094 0.3164,-1.113281 0.3164,-1.546875 0,-0.5625 -0.26953,-0.703125 -0.44531,-0.703125 -0.24609,0 -0.49219,0.257812 -0.49219,0.480469 0,0.128906 0.0586,0.1875 0.15235,0.269531 0.10547,0.105469 0.35156,0.363281 0.35156,0.84375 0,0.644531 -0.51562,1.453125 -0.86719,1.816406 -0.8789,0.890625 -1.51172,0.890625 -1.875,0.890625 z m 0,0"
         style="fill:#000000;fill-opacity:1;fill-rule:nonzero;stroke:none" />
      <path
         id="path19"
         d="m 119.90995,-84.63191 c 0,-0.03516 0,-0.04687 -0.16407,-0.222656 -1.24218,-1.253907 -1.57031,-3.128907 -1.57031,-4.664063 0,-1.722656 0.38672,-3.457031 1.60547,-4.710937 0.12891,-0.117188 0.12891,-0.128907 0.12891,-0.164063 0,-0.07031 -0.0352,-0.105469 -0.0937,-0.105469 -0.10547,0 -0.9961,0.679688 -1.58203,1.945313 -0.51563,1.101562 -0.63282,2.203125 -0.63282,3.035156 0,0.785156 0.11719,1.992188 0.65625,3.117188 0.59766,1.21875 1.45313,1.875 1.5586,1.875 0.0586,0 0.0937,-0.03516 0.0937,-0.105469 z m 0,0"
         style="fill:#000000;fill-opacity:1;fill-rule:nonzero;stroke:none" />
      <path
         id="path20"
         d="m 120.93534,-85.803785 c -0.082,0.339844 -0.0937,0.410156 -0.53906,0.410156 -0.11719,0 -0.22266,0 -0.22266,0.1875 0,0.08203 0.0469,0.117188 0.12891,0.117188 0.26953,0 0.55078,-0.03516 0.83203,-0.03516 0.32812,0 0.66797,0.03516 0.98437,0.03516 0.0586,0 0.1875,0 0.1875,-0.199219 0,-0.105469 -0.10547,-0.105469 -0.24609,-0.105469 -0.49219,0 -0.49219,-0.07031 -0.49219,-0.164062 0,-0.117188 0.42188,-1.746094 0.48047,-1.992188 0.14062,0.292969 0.41016,0.632813 0.92578,0.632813 1.14844,0 2.40234,-1.453125 2.40234,-2.917969 0,-0.9375 -0.57421,-1.59375 -1.33593,-1.59375 -0.49219,0 -0.97266,0.363281 -1.30078,0.75 -0.0937,-0.539063 -0.52735,-0.75 -0.89063,-0.75 -0.45703,0 -0.65625,0.386719 -0.73828,0.574219 -0.1875,0.339843 -0.31641,0.9375 -0.31641,0.960937 0,0.105469 0.10547,0.105469 0.12891,0.105469 0.0937,0 0.10547,-0.01172 0.16406,-0.234375 0.16406,-0.703125 0.36328,-1.183594 0.72656,-1.183594 0.17579,0 0.30469,0.08203 0.30469,0.457031 0,0.234375 -0.0234,0.339844 -0.0703,0.503907 z m 1.75781,-4.324219 c 0.0703,-0.269531 0.33984,-0.550781 0.51563,-0.703125 0.35156,-0.304687 0.63281,-0.375 0.80859,-0.375 0.39844,0 0.63281,0.351563 0.63281,0.9375 0,0.585938 -0.32812,1.734375 -0.5039,2.109375 -0.33985,0.703125 -0.82032,1.03125 -1.1836,1.03125 -0.65625,0 -0.78515,-0.832031 -0.78515,-0.890625 0,-0.02344 0,-0.03516 0.0234,-0.164062 z m 0,0"
         style="fill:#000000;fill-opacity:1;fill-rule:nonzero;stroke:none" />
      <path
         id="path21"
         d="m 129.01835,-86.79402 h -0.23438 c -0.0234,0.152344 -0.082,0.5625 -0.17578,0.632813 -0.0586,0.03516 -0.59766,0.03516 -0.69141,0.03516 h -1.28906 c 0.73828,-0.644531 0.98438,-0.84375 1.39453,-1.171875 0.51563,-0.410156 0.9961,-0.84375 0.9961,-1.5 0,-0.84375 -0.73829,-1.359375 -1.62891,-1.359375 -0.86719,0 -1.45313,0.609375 -1.45313,1.242188 0,0.363281 0.30469,0.398437 0.375,0.398437 0.16407,0 0.375,-0.117187 0.375,-0.375 0,-0.128906 -0.0586,-0.363281 -0.42187,-0.363281 0.22266,-0.503906 0.69141,-0.65625 1.01953,-0.65625 0.70313,0 1.06641,0.550781 1.06641,1.113281 0,0.609375 -0.4336,1.089844 -0.65625,1.335938 l -1.6875,1.664062 c -0.0703,0.05859 -0.0703,0.07031 -0.0703,0.269532 h 2.88282 z m 0,0"
         style="fill:#000000;fill-opacity:1;fill-rule:nonzero;stroke:none" />
      <path
         id="path22"
         d="m 132.85624,-89.518629 c 0,-0.773437 -0.11719,-1.980469 -0.65625,-3.105469 -0.59766,-1.21875 -1.46485,-1.875 -1.5586,-1.875 -0.0586,0 -0.10547,0.04687 -0.10547,0.105469 0,0.03516 0,0.04687 0.19922,0.234375 0.97266,0.984375 1.53516,2.566406 1.53516,4.640625 0,1.710938 -0.36328,3.457031 -1.59375,4.722656 -0.14063,0.117188 -0.14063,0.128907 -0.14063,0.164063 0,0.05859 0.0469,0.105469 0.10547,0.105469 0.0937,0 0.9961,-0.679688 1.58203,-1.945313 0.50391,-1.101562 0.63282,-2.203125 0.63282,-3.046875 z m 0,0"
         style="fill:#000000;fill-opacity:1;fill-rule:nonzero;stroke:none" />
      <path
         id="path23"
         d="m -67.713095,-230.65925 c 0.01172,-0.0352 0.02344,-0.0937 0.02344,-0.15235 0,-0.0937 -0.07031,-0.10547 -0.117187,-0.10547 -0.09375,0 -0.105469,0.0234 -0.152344,0.19922 l -1.652344,6.58594 c -0.75,-0.0937 -1.136718,-0.45703 -1.136718,-1.11328 0,-0.19922 0,-0.45703 0.539062,-1.85156 0.04687,-0.12891 0.117188,-0.29297 0.117188,-0.49219 0,-0.44531 -0.328125,-0.82031 -0.820313,-0.82031 -0.949219,0 -1.3125,1.45312 -1.3125,1.53515 0,0.10547 0.09375,0.10547 0.117188,0.10547 0.09375,0 0.105468,-0.0234 0.152343,-0.1875 0.269532,-0.9375 0.667969,-1.23047 1.007813,-1.23047 0.08203,0 0.257812,0 0.257812,0.31641 0,0.25781 -0.105468,0.51562 -0.234375,0.85547 -0.480468,1.2539 -0.480468,1.51172 -0.480468,1.6875 0,0.94922 0.785156,1.35937 1.734375,1.41797 -0.08203,0.35156 -0.08203,0.375 -0.222657,0.90234 -0.02344,0.10547 -0.222656,0.91406 -0.222656,0.94922 0,0.0117 0,0.0937 0.117188,0.0937 0.02344,0 0.07031,0 0.09375,-0.0352 0.02344,-0.0234 0.08203,-0.26953 0.117187,-0.41015 l 0.375,-1.48828 c 0.375,0 1.242188,0 2.179688,-1.06641 0.410156,-0.45703 0.621093,-0.89063 0.726562,-1.19531 0.09375,-0.2461 0.316406,-1.11328 0.316406,-1.54688 0,-0.5625 -0.269531,-0.70312 -0.445312,-0.70312 -0.246094,0 -0.492188,0.25781 -0.492188,0.48047 0,0.1289 0.05859,0.1875 0.152344,0.26953 0.105469,0.10547 0.351563,0.36328 0.351563,0.84375 0,0.64453 -0.515625,1.45312 -0.867188,1.8164 -0.878906,0.89063 -1.511719,0.89063 -1.875,0.89063 z m 0,0"
         style="fill:#000000;fill-opacity:1;fill-rule:nonzero;stroke:none" />
      <path
         id="path24"
         d="m -62.378133,-221.61238 c 0,-0.0351 0,-0.0469 -0.164063,-0.22265 -1.242188,-1.25391 -1.570313,-3.12891 -1.570313,-4.66407 0,-1.72265 0.386719,-3.45703 1.605469,-4.71093 0.128907,-0.11719 0.128907,-0.12891 0.128907,-0.16407 0,-0.0703 -0.03516,-0.10547 -0.09375,-0.10547 -0.105469,0 -0.996095,0.67969 -1.582032,1.94532 -0.515625,1.10156 -0.632813,2.20312 -0.632813,3.03515 0,0.78516 0.117188,1.99219 0.65625,3.11719 0.597657,1.21875 1.453126,1.875 1.558595,1.875 0.05859,0 0.09375,-0.0352 0.09375,-0.10547 z m 0,0"
         style="fill:#000000;fill-opacity:1;fill-rule:nonzero;stroke:none" />
      <path
         id="path25"
         d="m -57.298055,-228.29207 c 0,-0.0469 -0.02344,-0.10546 -0.09375,-0.10546 -0.117188,0 -0.515625,0.39843 -0.679688,0.6914 -0.222656,-0.53906 -0.609375,-0.70312 -0.925781,-0.70312 -1.171875,0 -2.402344,1.47656 -2.402344,2.91797 0,0.98437 0.585938,1.59375 1.3125,1.59375 0.433594,0 0.820313,-0.23438 1.183594,-0.59766 -0.09375,0.35156 -0.421875,1.69922 -0.457031,1.79297 -0.08203,0.26953 -0.152344,0.3164 -0.714844,0.32812 -0.128906,0 -0.222656,0 -0.222656,0.19922 0,0 0,0.10547 0.128906,0.10547 0.316406,0 0.667969,-0.0352 0.996094,-0.0352 0.328125,0 0.691406,0.0352 1.019531,0.0352 0.04687,0 0.175781,0 0.175781,-0.19922 0,-0.10547 -0.09375,-0.10547 -0.257812,-0.10547 -0.46875,0 -0.46875,-0.0703 -0.46875,-0.16406 0,-0.0703 0.01172,-0.12891 0.03516,-0.22266 z m -2.753907,4.1836 c -0.597656,0 -0.644531,-0.77344 -0.644531,-0.9375 0,-0.48047 0.292969,-1.57031 0.457031,-1.98047 0.316407,-0.73828 0.832032,-1.16016 1.242188,-1.16016 0.644531,0 0.785156,0.8086 0.785156,0.87891 0,0.0586 -0.550781,2.23828 -0.574219,2.27344 -0.152343,0.28125 -0.714843,0.92578 -1.265625,0.92578 z m 0,0"
         style="fill:#000000;fill-opacity:1;fill-rule:nonzero;stroke:none" />
      <path
         id="path26"
         d="m -55.018758,-226.94148 c 0,-0.1875 -0.01172,-0.19922 -0.210938,-0.19922 -0.445312,0.4336 -1.078125,0.44531 -1.359375,0.44531 v 0.2461 c 0.164063,0 0.621094,0 1.007813,-0.1875 v 3.55078 c 0,0.23437 0,0.32812 -0.691407,0.32812 h -0.269531 v 0.2461 c 0.128906,-0.0117 0.984375,-0.0234 1.242188,-0.0234 0.210937,0 1.089843,0.0117 1.242187,0.0234 v -0.2461 h -0.257812 c -0.703125,0 -0.703125,-0.0937 -0.703125,-0.32812 z m 0,0"
         style="fill:#000000;fill-opacity:1;fill-rule:nonzero;stroke:none" />
      <path
         id="path27"
         d="m -49.997274,-226.4991 c 0,-0.77343 -0.117188,-1.98047 -0.65625,-3.10547 -0.597656,-1.21875 -1.464844,-1.875 -1.558594,-1.875 -0.05859,0 -0.105469,0.0469 -0.105469,0.10547 0,0.0352 0,0.0469 0.199219,0.23438 0.972656,0.98437 1.535156,2.5664 1.535156,4.64062 0,1.71094 -0.363281,3.45703 -1.59375,4.72266 -0.140625,0.11719 -0.140625,0.12891 -0.140625,0.16406 0,0.0586 0.04687,0.10547 0.105469,0.10547 0.09375,0 0.996094,-0.67969 1.582031,-1.94531 0.503907,-1.10156 0.632813,-2.20313 0.632813,-3.04688 z m 0,0"
         style="fill:#000000;fill-opacity:1;fill-rule:nonzero;stroke:none" />
      <path
         id="path28"
         d="m 114.57499,-230.65925 c 0.0117,-0.0352 0.0234,-0.0937 0.0234,-0.15235 0,-0.0937 -0.0703,-0.10547 -0.11718,-0.10547 -0.0937,0 -0.10547,0.0234 -0.15235,0.19922 l -1.65234,6.58594 c -0.75,-0.0937 -1.13672,-0.45703 -1.13672,-1.11328 0,-0.19922 0,-0.45703 0.53906,-1.85156 0.0469,-0.12891 0.11719,-0.29297 0.11719,-0.49219 0,-0.44531 -0.32812,-0.82031 -0.82031,-0.82031 -0.94922,0 -1.3125,1.45312 -1.3125,1.53515 0,0.10547 0.0937,0.10547 0.11719,0.10547 0.0937,0 0.10546,-0.0234 0.15234,-0.1875 0.26953,-0.9375 0.66797,-1.23047 1.00781,-1.23047 0.082,0 0.25781,0 0.25781,0.31641 0,0.25781 -0.10546,0.51562 -0.23437,0.85547 -0.48047,1.2539 -0.48047,1.51172 -0.48047,1.6875 0,0.94922 0.78516,1.35937 1.73438,1.41797 -0.082,0.35156 -0.082,0.375 -0.22266,0.90234 -0.0234,0.10547 -0.22266,0.91406 -0.22266,0.94922 0,0.0117 0,0.0937 0.11719,0.0937 0.0234,0 0.0703,0 0.0937,-0.0352 0.0234,-0.0234 0.082,-0.26953 0.11719,-0.41015 l 0.375,-1.48828 c 0.375,0 1.24219,0 2.17969,-1.06641 0.41015,-0.45703 0.62109,-0.89063 0.72656,-1.19531 0.0937,-0.2461 0.3164,-1.11328 0.3164,-1.54688 0,-0.5625 -0.26953,-0.70312 -0.44531,-0.70312 -0.24609,0 -0.49219,0.25781 -0.49219,0.48047 0,0.1289 0.0586,0.1875 0.15235,0.26953 0.10547,0.10547 0.35156,0.36328 0.35156,0.84375 0,0.64453 -0.51562,1.45312 -0.86719,1.8164 -0.8789,0.89063 -1.51172,0.89063 -1.875,0.89063 z m 0,0"
         style="fill:#000000;fill-opacity:1;fill-rule:nonzero;stroke:none" />
      <path
         id="path29"
         d="m 119.90995,-221.61238 c 0,-0.0351 0,-0.0469 -0.16407,-0.22265 -1.24218,-1.25391 -1.57031,-3.12891 -1.57031,-4.66407 0,-1.72265 0.38672,-3.45703 1.60547,-4.71093 0.12891,-0.11719 0.12891,-0.12891 0.12891,-0.16407 0,-0.0703 -0.0352,-0.10547 -0.0937,-0.10547 -0.10547,0 -0.9961,0.67969 -1.58203,1.94532 -0.51563,1.10156 -0.63282,2.20312 -0.63282,3.03515 0,0.78516 0.11719,1.99219 0.65625,3.11719 0.59766,1.21875 1.45313,1.875 1.5586,1.875 0.0586,0 0.0937,-0.0352 0.0937,-0.10547 z m 0,0"
         style="fill:#000000;fill-opacity:1;fill-rule:nonzero;stroke:none" />
      <path
         id="path30"
         d="m 124.99003,-228.29207 c 0,-0.0469 -0.0234,-0.10546 -0.0937,-0.10546 -0.11719,0 -0.51563,0.39843 -0.67969,0.6914 -0.22266,-0.53906 -0.60938,-0.70312 -0.92578,-0.70312 -1.17188,0 -2.40235,1.47656 -2.40235,2.91797 0,0.98437 0.58594,1.59375 1.3125,1.59375 0.4336,0 0.82032,-0.23438 1.1836,-0.59766 -0.0937,0.35156 -0.42188,1.69922 -0.45703,1.79297 -0.082,0.26953 -0.15235,0.3164 -0.71485,0.32812 -0.1289,0 -0.22265,0 -0.22265,0.19922 0,0 0,0.10547 0.1289,0.10547 0.31641,0 0.66797,-0.0352 0.9961,-0.0352 0.32812,0 0.6914,0.0352 1.01953,0.0352 0.0469,0 0.17578,0 0.17578,-0.19922 0,-0.10547 -0.0937,-0.10547 -0.25781,-0.10547 -0.46875,0 -0.46875,-0.0703 -0.46875,-0.16406 0,-0.0703 0.0117,-0.12891 0.0352,-0.22266 z m -2.75391,4.1836 c -0.59766,0 -0.64453,-0.77344 -0.64453,-0.9375 0,-0.48047 0.29297,-1.57031 0.45703,-1.98047 0.31641,-0.73828 0.83203,-1.16016 1.24219,-1.16016 0.64453,0 0.78515,0.8086 0.78515,0.87891 0,0.0586 -0.55078,2.23828 -0.57422,2.27344 -0.15234,0.28125 -0.71484,0.92578 -1.26562,0.92578 z m 0,0"
         style="fill:#000000;fill-opacity:1;fill-rule:nonzero;stroke:none" />
      <path
         id="path31"
         d="m 128.45292,-223.77742 h -0.23438 c -0.0234,0.15235 -0.082,0.5625 -0.17578,0.63282 -0.0586,0.0352 -0.59766,0.0352 -0.69141,0.0352 h -1.28906 c 0.73828,-0.64453 0.98438,-0.84375 1.39453,-1.17187 0.51563,-0.41016 0.9961,-0.84375 0.9961,-1.5 0,-0.84375 -0.73829,-1.35938 -1.62891,-1.35938 -0.86719,0 -1.45313,0.60938 -1.45313,1.24219 0,0.36328 0.30469,0.39844 0.375,0.39844 0.16407,0 0.375,-0.11719 0.375,-0.375 0,-0.12891 -0.0586,-0.36328 -0.42187,-0.36328 0.22266,-0.50391 0.69141,-0.65625 1.01953,-0.65625 0.70313,0 1.06641,0.55078 1.06641,1.11328 0,0.60937 -0.4336,1.08984 -0.65625,1.33593 l -1.6875,1.66407 c -0.0703,0.0586 -0.0703,0.0703 -0.0703,0.26953 h 2.88282 z m 0,0"
         style="fill:#000000;fill-opacity:1;fill-rule:nonzero;stroke:none" />
      <path
         id="path32"
         d="m 132.29081,-226.4991 c 0,-0.77343 -0.11719,-1.98047 -0.65625,-3.10547 -0.59766,-1.21875 -1.46485,-1.875 -1.5586,-1.875 -0.0586,0 -0.10547,0.0469 -0.10547,0.10547 0,0.0352 0,0.0469 0.19922,0.23438 0.97266,0.98437 1.53516,2.5664 1.53516,4.64062 0,1.71094 -0.36328,3.45703 -1.59375,4.72266 -0.14063,0.11719 -0.14063,0.12891 -0.14063,0.16406 0,0.0586 0.0469,0.10547 0.10547,0.10547 0.0937,0 0.9961,-0.67969 1.58203,-1.94531 0.50391,-1.10156 0.63282,-2.20313 0.63282,-3.04688 z m 0,0"
         style="fill:#000000;fill-opacity:1;fill-rule:nonzero;stroke:none" />
      <path
         id="path33"
         d="m 24.209294,-172.93768 c 0,-0.0117 0.03516,-0.1289 0.03516,-0.1289 0,-0.0117 0,-0.10547 -0.117188,-0.10547 -0.105469,0 -0.117187,0.0352 -0.152344,0.19922 l -0.574218,2.29687 c -1.582032,0.0586 -3.046875,1.38281 -3.046875,2.73047 0,0.94922 0.691406,1.73438 1.910156,1.80469 -0.08203,0.3164 -0.152344,0.63281 -0.234375,0.9375 -0.117188,0.46875 -0.210938,0.84375 -0.210938,0.8789 0,0.0937 0.07031,0.10547 0.117188,0.10547 0.04687,0 0.07031,-0.0117 0.09375,-0.0352 0.02344,-0.0234 0.08203,-0.25781 0.117187,-0.39843 l 0.375,-1.48828 c 1.605469,-0.0469 3.046875,-1.39454 3.046875,-2.73047 0,-0.78516 -0.527343,-1.69922 -1.910156,-1.80469 z m -1.898437,6.57422 c -0.597656,-0.0234 -1.3125,-0.375 -1.3125,-1.37109 0,-1.19531 0.855469,-2.58985 2.34375,-2.71875 z m 1.289062,-4.08984 c 0.75,0.0469 1.324219,0.5039 1.324219,1.37109 0,1.1836 -0.855469,2.60156 -2.355469,2.71875 z m 0,0"
         style="fill:#000000;fill-opacity:1;fill-rule:nonzero;stroke:none" />
      <path
         id="path34"
         d="m 29.090154,-163.86736 c 0,-0.0352 0,-0.0469 -0.164063,-0.22266 -1.242187,-1.25391 -1.570312,-3.12891 -1.570312,-4.66406 0,-1.72266 0.386719,-3.45703 1.605469,-4.71094 0.128906,-0.11719 0.128906,-0.12891 0.128906,-0.16406 0,-0.0703 -0.03516,-0.10547 -0.09375,-0.10547 -0.105469,0 -0.996094,0.67969 -1.582031,1.94531 -0.515625,1.10156 -0.632813,2.20313 -0.632813,3.03516 0,0.78515 0.117188,1.99218 0.65625,3.11718 0.597656,1.21875 1.453125,1.875 1.558594,1.875 0.05859,0 0.09375,-0.0352 0.09375,-0.10546 z m 0,0"
         style="fill:#000000;fill-opacity:1;fill-rule:nonzero;stroke:none" />
      <path
         id="path35"
         d="m 32.529607,-173.06658 c 0,0 0,-0.10547 -0.128906,-0.10547 -0.234375,0 -0.960938,0.082 -1.21875,0.10547 -0.08203,0 -0.1875,0.0117 -0.1875,0.19922 0,0.11718 0.09375,0.11718 0.234375,0.11718 0.480468,0 0.503906,0.0703 0.503906,0.16407 l -0.03516,0.19921 -1.441407,5.74219 c -0.03516,0.14063 -0.03516,0.15235 -0.03516,0.22266 0,0.22265 0.199219,0.26953 0.28125,0.26953 0.128906,0 0.28125,-0.082 0.339844,-0.21094 0.05859,-0.082 0.503906,-1.92187 0.5625,-2.17969 0.339844,0.0352 1.160156,0.1875 1.160156,0.85547 0,0.0703 0,0.10547 -0.03516,0.19922 -0.02344,0.12891 -0.03516,0.2461 -0.03516,0.35156 0,0.58594 0.398437,0.98438 0.914062,0.98438 0.292969,0 0.5625,-0.15234 0.785156,-0.52734 0.246094,-0.4336 0.363282,-0.98438 0.363282,-1.00782 0,-0.0937 -0.09375,-0.0937 -0.128907,-0.0937 -0.09375,0 -0.105468,0.0352 -0.140625,0.17578 -0.199218,0.72657 -0.421875,1.24219 -0.867187,1.24219 -0.1875,0 -0.316406,-0.11719 -0.316406,-0.46875 0,-0.17578 0.04687,-0.39844 0.08203,-0.5625 0.03516,-0.16406 0.03516,-0.21094 0.03516,-0.30469 0,-0.65625 -0.621094,-0.9375 -1.464844,-1.05468 0.304688,-0.17578 0.621094,-0.49219 0.855469,-0.72657 0.480469,-0.52734 0.9375,-0.96093 1.417969,-0.96093 0.05859,0 0.07031,0 0.09375,0.0117 0.117187,0.0234 0.128906,0.0234 0.210937,0.082 0.02344,0 0.02344,0.0117 0.03516,0.0352 -0.480469,0.0352 -0.5625,0.42187 -0.5625,0.53906 0,0.16406 0.105468,0.35156 0.375,0.35156 0.257812,0 0.550781,-0.22266 0.550781,-0.60937 0,-0.30469 -0.234375,-0.63282 -0.679688,-0.63282 -0.28125,0 -0.738281,0.082 -1.453125,0.87891 -0.339843,0.375 -0.726562,0.77344 -1.101562,0.92578 z m 0,0"
         style="fill:#000000;fill-opacity:1;fill-rule:nonzero;stroke:none" />
      <path
         id="path36"
         d="m 38.054998,-168.75408 c 0,-0.77344 -0.117188,-1.98047 -0.65625,-3.10547 -0.597657,-1.21875 -1.464844,-1.875 -1.558594,-1.875 -0.05859,0 -0.105469,0.0469 -0.105469,0.10547 0,0.0352 0,0.0469 0.199219,0.23437 0.972656,0.98438 1.535156,2.56641 1.535156,4.64063 0,1.71093 -0.363281,3.45703 -1.59375,4.72265 -0.140625,0.11719 -0.140625,0.12891 -0.140625,0.16407 0,0.0586 0.04687,0.10546 0.105469,0.10546 0.09375,0 0.996094,-0.67968 1.582031,-1.94531 0.503906,-1.10156 0.632813,-2.20312 0.632813,-3.04687 z"
         style="fill:#000000;fill-opacity:1;fill-rule:nonzero;stroke:none"
         sodipodi:nodetypes="scsscscsscs" />
    </g>
  </g>
</svg>
