<?xml version="1.0" encoding="UTF-8" standalone="no"?>
<!-- Created with Inkscape (http://www.inkscape.org/) -->

<svg
   version="1.1"
   id="svg1"
   width="400"
   height="300"
   viewBox="0 0 400 300"
   sodipodi:docname="moller-scattering.svg"
   inkscape:version="1.4 (86a8ad7, 2024-10-11)"
   inkscape:export-filename="Theoretical_physics_github_org_logo.png"
   inkscape:export-xdpi="122.88"
   inkscape:export-ydpi="122.88"
   xmlns:inkscape="http://www.inkscape.org/namespaces/inkscape"
   xmlns:sodipodi="http://sodipodi.sourceforge.net/DTD/sodipodi-0.dtd"
   xmlns="http://www.w3.org/2000/svg"
   xmlns:svg="http://www.w3.org/2000/svg">
  <defs
     id="defs1" />
  <sodipodi:namedview
     id="namedview1"
     pagecolor="#ffffff"
     bordercolor="#000000"
     borderopacity="0.25"
     inkscape:showpageshadow="2"
     inkscape:pageopacity="0.0"
     inkscape:pagecheckerboard="0"
     inkscape:deskcolor="#d1d1d1"
     inkscape:zoom="1.5359848"
     inkscape:cx="232.7497"
     inkscape:cy="247.07276"
     inkscape:window-width="1920"
     inkscape:window-height="1046"
     inkscape:window-x="-11"
     inkscape:window-y="-11"
     inkscape:window-maximized="1"
     inkscape:current-layer="g1">
    <inkscape:page
       x="0"
       y="0"
       inkscape:label="1"
       id="page1"
       width="400"
       height="300"
       margin="0"
       bleed="0" />
  </sodipodi:namedview>
  <g
     id="g1"
     inkscape:groupmode="layer"
     inkscape:label="1">
    <path
       id="path1"
       d="M 93.946987,248.03295 147.08,148.40686"
       style="fill:none;stroke:#000000;stroke-width:1.32835;stroke-linecap:round;stroke-linejoin:round;stroke-miterlimit:10;stroke-dasharray:none;stroke-opacity:1" />
    <path
       id="path2"
       d="m 121.837,204.05326 3.41944,-14.72655 -10.32451,11.04388 z"
       style="fill:#000000;fill-opacity:1;fill-rule:nonzero;stroke:none;stroke-width:1.33333" />
    <path
       id="path3"
       d="M 93.946987,48.78063 147.08,148.40686"
       style="fill:none;stroke:#000000;stroke-width:1.32835;stroke-linecap:round;stroke-linejoin:round;stroke-miterlimit:10;stroke-dasharray:none;stroke-opacity:1" />
    <path
       id="path4"
       d="M 114.93193,96.44305 125.25644,107.48693 121.837,92.76039 Z"
       style="fill:#000000;fill-opacity:1;fill-rule:nonzero;stroke:none;stroke-width:1.33333" />
    <path
       id="path5"
       d="m 147.08,148.40686 c 1.47592,-2.55636 5.16569,-2.55636 6.64161,0 1.47591,2.55637 5.16572,2.55637 6.64165,0 1.47592,-2.55636 5.1657,-2.55636 6.6416,0 1.47592,2.55639 5.16574,2.55643 6.64167,5e-5 1.47591,-2.55636 5.16569,-2.55636 6.6416,0 1.47593,2.55638 5.16573,2.55638 6.64168,0 1.47592,-2.55636 5.16569,-2.55636 6.6416,0 1.47592,2.55638 5.16573,2.55638 6.64165,0 1.47592,-2.55636 5.16569,-2.55636 6.64161,0 1.47591,2.55636 5.16569,2.55636 6.6416,0 1.47593,-2.55637 5.16575,-2.55637 6.64167,0 1.4759,2.55638 5.16568,2.55642 6.64159,7e-5 1.47592,-2.55637 5.16575,-2.55637 6.64166,0 1.47591,2.55635 5.16569,2.55635 6.6416,0 1.47593,-2.55637 5.16575,-2.55637 6.64166,0 1.47592,2.55635 5.16569,2.55635 6.6416,0"
       style="fill:none;stroke:#000000;stroke-width:1.32835;stroke-linecap:round;stroke-linejoin:round;stroke-miterlimit:10;stroke-dasharray:none;stroke-opacity:1" />
    <path
       id="path6"
       d="m 253.34605,148.40698 53.13349,99.62597"
       style="fill:none;stroke:#000000;stroke-width:1.32835;stroke-linecap:round;stroke-linejoin:round;stroke-miterlimit:10;stroke-dasharray:none;stroke-opacity:1" />
    <path
       id="path7"
       d="m 274.33126,196.06932 10.32455,11.04383 -3.41952,-14.72648 z"
       style="fill:#000000;fill-opacity:1;fill-rule:nonzero;stroke:none;stroke-width:1.33333" />
    <path
       id="path8"
       d="M 253.34605,148.40698 306.47954,48.78063"
       style="fill:none;stroke:#000000;stroke-width:1.32835;stroke-linecap:round;stroke-linejoin:round;stroke-miterlimit:10;stroke-dasharray:none;stroke-opacity:1" />
    <path
       id="path9"
       d="m 281.23633,104.42715 3.41949,-14.72653 -10.32459,11.04388 z"
       style="fill:#000000;fill-opacity:1;fill-rule:nonzero;stroke:none;stroke-width:1.33333" />
    <path
       id="path10"
       d="m 54.705087,260.99805 c 0.39063,0 1.375,-0.0312 2.03125,-0.3125 0.9375,-0.39063 1,-1.1875 1,-1.35938 0,-0.59375 -0.51562,-1.14062 -1.42187,-1.14062 -1.48438,0 -3.48438,1.29687 -3.48438,3.60937 0,1.35938 0.78125,2.40625 2.09375,2.40625 1.89063,0 3.01563,-1.40625 3.01563,-1.5625 0,-0.0781 -0.0937,-0.17187 -0.17188,-0.17187 -0.0625,0 -0.0937,0.0312 -0.17187,0.125 -1.04688,1.32812 -2.5,1.32812 -2.65625,1.32812 -1.03125,0 -1.15625,-1.125 -1.15625,-1.54687 0,-0.15625 0.0156,-0.57813 0.21875,-1.375 z m -0.625,-0.29688 c 0.51563,-2.01562 1.89063,-2.21875 2.23438,-2.21875 0.625,0 0.98437,0.39063 0.98437,0.84375 0,1.375 -2.125,1.375 -2.67187,1.375 z m 0,0"
       style="fill:#000000;fill-opacity:1;fill-rule:nonzero;stroke:none;stroke-width:1.33333" />
    <path
       id="path11"
       d="m 65.330087,257.14648 c 0.14063,0 0.35938,0 0.35938,-0.23437 0,-0.23438 -0.20313,-0.23438 -0.35938,-0.23438 h -5.54687 c -0.14063,0 -0.375,0 -0.375,0.23438 0,0.23437 0.21875,0.23437 0.375,0.23437 z m 0,0"
       style="fill:#000000;fill-opacity:1;fill-rule:nonzero;stroke:none;stroke-width:1.33333" />
    <path
       id="path12"
       d="m 70.076187,264.04492 c 0,-0.875 -0.34376,-1.39062 -0.85938,-1.39062 -0.4375,0 -0.70312,0.32812 -0.70312,0.70312 0,0.35938 0.26562,0.70313 0.70312,0.70313 0.15625,0 0.32813,-0.0469 0.46875,-0.17188 0.0312,-0.0312 0.0469,-0.0469 0.0625,-0.0469 0.0156,0 0.0313,0.0156 0.0313,0.20312 0,0.98438 -0.46875,1.78125 -0.90625,2.21875 -0.14063,0.14063 -0.14063,0.17188 -0.14063,0.21875 0,0.0937 0.0625,0.14063 0.125,0.14063 0.15625,0 1.21875,-1.01563 1.21875,-2.57813 z m 6.0039,1.64063 c -0.10937,0.45312 -0.125,0.54687 -0.71875,0.54687 -0.15625,0 -0.29687,0 -0.29687,0.25 0,0.10938 0.0625,0.15625 0.17187,0.15625 0.35938,0 0.73438,-0.0469 1.10938,-0.0469 0.4375,0 0.89062,0.0469 1.3125,0.0469 0.0781,0 0.25,0 0.25,-0.26562 0,-0.14063 -0.14063,-0.14063 -0.32813,-0.14063 -0.65625,0 -0.65625,-0.0937 -0.65625,-0.21875 0,-0.15625 0.5625,-2.32812 0.64063,-2.65625 0.1875,0.39063 0.54687,0.84375 1.23437,0.84375 1.53125,0 3.20313,-1.9375 3.20313,-3.89062 0,-1.25 -0.76563,-2.125 -1.78125,-2.125 -0.65625,0 -1.29688,0.48437 -1.73438,1 -0.125,-0.71875 -0.70312,-1 -1.1875,-1 -0.60937,0 -0.875,0.51562 -0.98437,0.76562 -0.25,0.45313 -0.42188,1.25 -0.42188,1.28125 0,0.14063 0.14063,0.14063 0.17188,0.14063 0.125,0 0.14062,-0.0156 0.21875,-0.3125 0.21875,-0.9375 0.48437,-1.57813 0.96875,-1.57813 0.23437,0 0.40625,0.10938 0.40625,0.60938 0,0.3125 -0.0313,0.45312 -0.0937,0.67187 z m 2.34375,-5.76563 c 0.0937,-0.35937 0.45313,-0.73437 0.6875,-0.9375 0.46875,-0.40625 0.84375,-0.5 1.07813,-0.5 0.53125,0 0.84375,0.46875 0.84375,1.25 0,0.78125 -0.4375,2.3125 -0.67188,2.8125 -0.45312,0.9375 -1.09375,1.375 -1.57812,1.375 -0.875,0 -1.04688,-1.10937 -1.04688,-1.1875 0,-0.0312 0,-0.0469 0.0312,-0.21875 z m 0,0"
       style="fill:#000000;fill-opacity:1;fill-rule:nonzero;stroke:none;stroke-width:1.33333" />
    <path
       id="path13"
       d="m 85.283217,260.14648 c 0,-0.25 -0.0156,-0.26562 -0.28125,-0.26562 -0.59375,0.57812 -1.4375,0.59375 -1.8125,0.59375 v 0.32812 c 0.21875,0 0.82812,0 1.34375,-0.25 v 4.73438 c 0,0.3125 0,0.4375 -0.92188,0.4375 h -0.35937 v 0.32812 c 0.17187,-0.0156 1.3125,-0.0312 1.65625,-0.0312 0.28125,0 1.45312,0.0156 1.65625,0.0312 v -0.32812 h -0.34375 c -0.9375,0 -0.9375,-0.125 -0.9375,-0.4375 z m 0,0"
       style="fill:#000000;fill-opacity:1;fill-rule:nonzero;stroke:none;stroke-width:1.33333" />
    <path
       id="path14"
       d="m 54.705087,37.68165 c 0.39063,0 1.375,-0.0312 2.03125,-0.3125 0.9375,-0.39063 1,-1.1875 1,-1.35938 0,-0.59374 -0.51562,-1.14062 -1.42187,-1.14062 -1.48438,0 -3.48438,1.29688 -3.48438,3.60937 0,1.35937 0.78125,2.40625 2.09375,2.40625 1.89063,0 3.01563,-1.40625 3.01563,-1.5625 0,-0.0781 -0.0937,-0.17187 -0.17188,-0.17187 -0.0625,0 -0.0937,0.0312 -0.17187,0.12493 -1.04688,1.32812 -2.5,1.32812 -2.65625,1.32812 -1.03125,0 -1.15625,-1.125 -1.15625,-1.54686 0,-0.15626 0.0156,-0.57814 0.21875,-1.375 z m -0.625,-0.29688 c 0.51563,-2.01562 1.89063,-2.21874 2.23438,-2.21874 0.625,0 0.98437,0.39062 0.98437,0.84374 0,1.375 -2.125,1.375 -2.67187,1.375 z m 0,0"
       style="fill:#000000;fill-opacity:1;fill-rule:nonzero;stroke:none;stroke-width:1.33333" />
    <path
       id="path15"
       d="m 65.330087,33.83008 c 0.14063,0 0.35938,0 0.35938,-0.23437 0,-0.23438 -0.20313,-0.23438 -0.35938,-0.23438 h -5.54687 c -0.14063,0 -0.375,0 -0.375,0.23438 0,0.23437 0.21875,0.23437 0.375,0.23437 z m 0,0"
       style="fill:#000000;fill-opacity:1;fill-rule:nonzero;stroke:none;stroke-width:1.33333" />
    <path
       id="path16"
       d="m 70.076187,40.72852 c 0,-0.875 -0.34376,-1.39063 -0.85938,-1.39063 -0.4375,0 -0.70312,0.32814 -0.70312,0.70314 0,0.35937 0.26562,0.70312 0.70312,0.70312 0.15625,0 0.32813,-0.0469 0.46875,-0.17188 0.0312,-0.0312 0.0469,-0.0468 0.0625,-0.0468 0.0156,0 0.0313,0.0156 0.0313,0.20312 0,0.98437 -0.46875,1.78125 -0.90625,2.21874 -0.14063,0.14063 -0.14063,0.17188 -0.14063,0.21876 0,0.0937 0.0625,0.14063 0.125,0.14063 0.15625,0 1.21875,-1.01563 1.21875,-2.57813 z m 6.0039,1.64063 c -0.10937,0.45312 -0.125,0.54688 -0.71875,0.54688 -0.15625,0 -0.29687,0 -0.29687,0.25 0,0.10933 0.0625,0.15624 0.17187,0.15624 0.35938,0 0.73438,-0.0468 1.10938,-0.0468 0.4375,0 0.89062,0.0468 1.3125,0.0468 0.0781,0 0.25,0 0.25,-0.26562 0,-0.14062 -0.14063,-0.14062 -0.32813,-0.14062 -0.65625,0 -0.65625,-0.0937 -0.65625,-0.21876 0,-0.15624 0.5625,-2.32812 0.64063,-2.65624 0.1875,0.39062 0.54687,0.84374 1.23437,0.84374 1.53125,0 3.20313,-1.9375 3.20313,-3.89062 0,-1.25 -0.76563,-2.125 -1.78125,-2.125 -0.65625,0 -1.29688,0.48437 -1.73438,1 -0.125,-0.71875 -0.70312,-1 -1.1875,-1 -0.60937,0 -0.875,0.51562 -0.98437,0.76562 -0.25,0.45312 -0.42188,1.25 -0.42188,1.28126 0,0.14062 0.14063,0.14062 0.17188,0.14062 0.125,0 0.14062,-0.0156 0.21875,-0.3125 0.21875,-0.9375 0.48437,-1.57812 0.96875,-1.57812 0.23437,0 0.40625,0.10933 0.40625,0.60937 0,0.31249 -0.0313,0.45312 -0.0937,0.67187 z m 2.34375,-5.76563 c 0.0937,-0.35937 0.45313,-0.73437 0.6875,-0.93749 0.46875,-0.40626 0.84375,-0.5 1.07813,-0.5 0.53125,0 0.84375,0.46874 0.84375,1.25 0,0.78124 -0.4375,2.31249 -0.67188,2.81249 -0.45312,0.93751 -1.09375,1.375 -1.57812,1.375 -0.875,0 -1.04688,-1.10937 -1.04688,-1.18749 0,-0.0312 0,-0.0469 0.0312,-0.21876 z m 0,0"
       style="fill:#000000;fill-opacity:1;fill-rule:nonzero;stroke:none;stroke-width:1.33333" />
    <path
       id="path17"
       d="m 86.861337,41.05275 h -0.3125 c -0.0312,0.20312 -0.10937,0.75 -0.23437,0.84374 -0.0781,0.0469 -0.79688,0.0469 -0.92188,0.0469 h -1.71875 c 0.98438,-0.85938 1.3125,-1.125 1.85938,-1.5625 0.6875,-0.54688 1.32812,-1.125 1.32812,-2 0,-1.125 -0.98437,-1.8125 -2.17187,-1.8125 -1.15625,0 -1.9375,0.8125 -1.9375,1.65625 0,0.48437 0.40625,0.53125 0.5,0.53125 0.21875,0 0.5,-0.15625 0.5,-0.5 0,-0.17188 -0.0781,-0.48437 -0.5625,-0.48437 0.29687,-0.67188 0.92187,-0.875 1.35937,-0.875 0.9375,0 1.42188,0.73437 1.42188,1.48437 0,0.8125 -0.57813,1.45312 -0.875,1.78126 l -2.25,2.21874 c -0.0937,0.0781 -0.0937,0.0937 -0.0937,0.35938 h 3.8437 z m 0,0"
       style="fill:#000000;fill-opacity:1;fill-rule:nonzero;stroke:none;stroke-width:1.33333" />
    <path
       id="path18"
       d="m 314.7793,260.99805 c 0.39061,0 1.375,-0.0312 2.03124,-0.3125 0.93751,-0.39063 1,-1.1875 1,-1.35938 0,-0.59375 -0.51563,-1.14062 -1.42187,-1.14062 -1.48437,0 -3.48437,1.29687 -3.48437,3.60937 0,1.35938 0.78124,2.40625 2.09375,2.40625 1.89062,0 3.01562,-1.40625 3.01562,-1.5625 0,-0.0781 -0.0937,-0.17187 -0.17188,-0.17187 -0.0625,0 -0.0937,0.0312 -0.17188,0.125 -1.04685,1.32812 -2.5,1.32812 -2.65624,1.32812 -1.03125,0 -1.15625,-1.125 -1.15625,-1.54687 0,-0.15625 0.0156,-0.57813 0.21875,-1.375 z m -0.625,-0.29688 c 0.51561,-2.01562 1.89061,-2.21875 2.23437,-2.21875 0.625,0 0.98438,0.39063 0.98438,0.84375 0,1.375 -2.125,1.375 -2.67188,1.375 z m 0,0"
       style="fill:#000000;fill-opacity:1;fill-rule:nonzero;stroke:none;stroke-width:1.33333" />
    <path
       id="path19"
       d="m 325.40039,257.14648 c 0.14063,0 0.35938,0 0.35938,-0.23437 0,-0.23438 -0.20314,-0.23438 -0.35938,-0.23438 h -5.54687 c -0.14063,0 -0.375,0 -0.375,0.23438 0,0.23437 0.21875,0.23437 0.375,0.23437 z m 0,0"
       style="fill:#000000;fill-opacity:1;fill-rule:nonzero;stroke:none;stroke-width:1.33333" />
    <path
       id="path20"
       d="m 330.15039,264.04492 c 0,-0.875 -0.34375,-1.39062 -0.85937,-1.39062 -0.4375,0 -0.70313,0.32812 -0.70313,0.70312 0,0.35938 0.26563,0.70313 0.70313,0.70313 0.15625,0 0.32812,-0.0469 0.46875,-0.17188 0.0312,-0.0312 0.0468,-0.0469 0.0625,-0.0469 0.0156,0 0.0312,0.0156 0.0312,0.20312 0,0.98438 -0.46875,1.78125 -0.90625,2.21875 -0.14062,0.14063 -0.14062,0.17188 -0.14062,0.21875 0,0.0937 0.0625,0.14063 0.12493,0.14063 0.15625,0 1.21875,-1.01563 1.21875,-2.57813 z m 6.00392,1.64063 c -0.10933,0.45312 -0.12493,0.54687 -0.71875,0.54687 -0.15625,0 -0.29688,0 -0.29688,0.25 0,0.10938 0.0625,0.15625 0.17188,0.15625 0.35937,0 0.73437,-0.0469 1.10937,-0.0469 0.4375,0 0.89063,0.0469 1.3125,0.0469 0.0781,0 0.25,0 0.25,-0.26562 0,-0.14063 -0.14062,-0.14063 -0.32812,-0.14063 -0.65625,0 -0.65625,-0.0937 -0.65625,-0.21875 0,-0.15625 0.5625,-2.32812 0.64062,-2.65625 0.1875,0.39063 0.54688,0.84375 1.23438,0.84375 1.53125,0 3.20312,-1.9375 3.20312,-3.89062 0,-1.25 -0.76562,-2.125 -1.78125,-2.125 -0.65625,0 -1.29686,0.48437 -1.73437,1 -0.12493,-0.71875 -0.70313,-1 -1.1875,-1 -0.60938,0 -0.875,0.51562 -0.98438,0.76562 -0.25,0.45313 -0.42187,1.25 -0.42187,1.28125 0,0.14063 0.14062,0.14063 0.17187,0.14063 0.12494,0 0.14063,-0.0156 0.21875,-0.3125 0.21875,-0.9375 0.48438,-1.57813 0.96875,-1.57813 0.23438,0 0.40625,0.10938 0.40625,0.60938 0,0.3125 -0.0312,0.45312 -0.0937,0.67187 z m 2.34375,-5.76563 c 0.0937,-0.35937 0.45312,-0.73437 0.6875,-0.9375 0.46875,-0.40625 0.84375,-0.5 1.07812,-0.5 0.53125,0 0.84375,0.46875 0.84375,1.25 0,0.78125 -0.4375,2.3125 -0.67187,2.8125 -0.45313,0.9375 -1.09375,1.375 -1.57813,1.375 -0.875,0 -1.04687,-1.10937 -1.04687,-1.1875 0,-0.0312 0,-0.0469 0.0312,-0.21875 z m 0,0"
       style="fill:#000000;fill-opacity:1;fill-rule:nonzero;stroke:none;stroke-width:1.33333" />
    <path
       id="path21"
       d="m 344.7793,262.94336 c 0.73437,0 1.25,0.5 1.25,1.5 0,1.15625 -0.67188,1.5 -1.20313,1.5 -0.375,0 -1.1875,-0.10938 -1.57812,-0.65625 0.43749,-0.0156 0.53125,-0.32813 0.53125,-0.51563 0,-0.29687 -0.21876,-0.51562 -0.51563,-0.51562 -0.25,0 -0.51562,0.15625 -0.51562,0.54687 0,0.875 0.96874,1.4375 2.09374,1.4375 1.29688,0 2.18751,-0.85937 2.18751,-1.79687 0,-0.71875 -0.59376,-1.45313 -1.625,-1.65625 0.98437,-0.35938 1.32812,-1.0625 1.32812,-1.625 0,-0.73438 -0.84375,-1.28125 -1.875,-1.28125 -1.03125,0 -1.81251,0.5 -1.81251,1.25 0,0.3125 0.20315,0.48437 0.4844,0.48437 0.28125,0 0.46875,-0.21875 0.46875,-0.46875 0,-0.26562 -0.1875,-0.46875 -0.46875,-0.48437 0.3125,-0.40625 0.95312,-0.51563 1.29687,-0.51563 0.42188,0 1.01563,0.20313 1.01563,1.01563 0,0.39062 -0.14063,0.8125 -0.375,1.10937 -0.3125,0.34375 -0.5625,0.375 -1.03125,0.39063 -0.23438,0.0312 -0.25,0.0312 -0.29688,0.0312 -0.0156,0 -0.0937,0.0156 -0.0937,0.125 0,0.125 0.0781,0.125 0.2344,0.125 z m 0,0"
       style="fill:#000000;fill-opacity:1;fill-rule:nonzero;stroke:none;stroke-width:1.33333" />
    <path
       id="path22"
       d="m 314.7793,37.68165 c 0.39061,0 1.375,-0.0312 2.03124,-0.3125 0.93751,-0.39063 1,-1.1875 1,-1.35938 0,-0.59374 -0.51563,-1.14062 -1.42187,-1.14062 -1.48437,0 -3.48437,1.29688 -3.48437,3.60937 0,1.35937 0.78124,2.40625 2.09375,2.40625 1.89062,0 3.01562,-1.40625 3.01562,-1.5625 0,-0.0781 -0.0937,-0.17187 -0.17188,-0.17187 -0.0625,0 -0.0937,0.0312 -0.17188,0.12493 -1.04685,1.32812 -2.5,1.32812 -2.65624,1.32812 -1.03125,0 -1.15625,-1.125 -1.15625,-1.54686 0,-0.15626 0.0156,-0.57814 0.21875,-1.375 z m -0.625,-0.29688 c 0.51561,-2.01562 1.89061,-2.21874 2.23437,-2.21874 0.625,0 0.98438,0.39062 0.98438,0.84374 0,1.375 -2.125,1.375 -2.67188,1.375 z m 0,0"
       style="fill:#000000;fill-opacity:1;fill-rule:nonzero;stroke:none;stroke-width:1.33333" />
    <path
       id="path23"
       d="m 325.40039,33.83008 c 0.14063,0 0.35938,0 0.35938,-0.23437 0,-0.23438 -0.20314,-0.23438 -0.35938,-0.23438 h -5.54687 c -0.14063,0 -0.375,0 -0.375,0.23438 0,0.23437 0.21875,0.23437 0.375,0.23437 z m 0,0"
       style="fill:#000000;fill-opacity:1;fill-rule:nonzero;stroke:none;stroke-width:1.33333" />
    <path
       id="path24"
       d="m 330.15039,40.72852 c 0,-0.875 -0.34375,-1.39063 -0.85937,-1.39063 -0.4375,0 -0.70313,0.32814 -0.70313,0.70314 0,0.35937 0.26563,0.70312 0.70313,0.70312 0.15625,0 0.32812,-0.0469 0.46875,-0.17188 0.0312,-0.0312 0.0468,-0.0468 0.0625,-0.0468 0.0156,0 0.0312,0.0156 0.0312,0.20312 0,0.98437 -0.46875,1.78125 -0.90625,2.21874 -0.14062,0.14063 -0.14062,0.17188 -0.14062,0.21876 0,0.0937 0.0625,0.14063 0.12493,0.14063 0.15625,0 1.21875,-1.01563 1.21875,-2.57813 z m 6.00392,1.64063 c -0.10933,0.45312 -0.12493,0.54688 -0.71875,0.54688 -0.15625,0 -0.29688,0 -0.29688,0.25 0,0.10933 0.0625,0.15624 0.17188,0.15624 0.35937,0 0.73437,-0.0468 1.10937,-0.0468 0.4375,0 0.89063,0.0468 1.3125,0.0468 0.0781,0 0.25,0 0.25,-0.26562 0,-0.14062 -0.14062,-0.14062 -0.32812,-0.14062 -0.65625,0 -0.65625,-0.0937 -0.65625,-0.21876 0,-0.15624 0.5625,-2.32812 0.64062,-2.65624 0.1875,0.39062 0.54688,0.84374 1.23438,0.84374 1.53125,0 3.20312,-1.9375 3.20312,-3.89062 0,-1.25 -0.76562,-2.125 -1.78125,-2.125 -0.65625,0 -1.29686,0.48437 -1.73437,1 -0.12493,-0.71875 -0.70313,-1 -1.1875,-1 -0.60938,0 -0.875,0.51562 -0.98438,0.76562 -0.25,0.45312 -0.42187,1.25 -0.42187,1.28126 0,0.14062 0.14062,0.14062 0.17187,0.14062 0.12494,0 0.14063,-0.0156 0.21875,-0.3125 0.21875,-0.9375 0.48438,-1.57812 0.96875,-1.57812 0.23438,0 0.40625,0.10933 0.40625,0.60937 0,0.31249 -0.0312,0.45312 -0.0937,0.67187 z m 2.34375,-5.76563 c 0.0937,-0.35937 0.45312,-0.73437 0.6875,-0.93749 0.46875,-0.40626 0.84375,-0.5 1.07812,-0.5 0.53125,0 0.84375,0.46874 0.84375,1.25 0,0.78124 -0.4375,2.31249 -0.67187,2.81249 -0.45313,0.93751 -1.09375,1.375 -1.57813,1.375 -0.875,0 -1.04687,-1.10937 -1.04687,-1.18749 0,-0.0312 0,-0.0469 0.0312,-0.21876 z m 0,0"
       style="fill:#000000;fill-opacity:1;fill-rule:nonzero;stroke:none;stroke-width:1.33333" />
    <path
       id="path25"
       d="m 347.16991,41.20899 v -0.32812 h -1.03124 v -4.14063 c 0,-0.20312 0,-0.26563 -0.20313,-0.26563 -0.12493,0 -0.15624,0 -0.25,0.12494 l -3.07812,4.28125 v 0.32812 h 2.73437 v 0.76563 c 0,0.3125 0,0.4375 -0.75,0.4375 h -0.25 v 0.32812 c 0.46875,-0.0156 1.06251,-0.0312 1.39063,-0.0312 0.34375,0 0.93749,0.0156 1.40625,0.0312 v -0.32812 h -0.25 c -0.75,0 -0.75,-0.12493 -0.75,-0.4375 v -0.76563 z m -1.7656,-3.73438 v 3.40626 h -2.45313 z m 0,0"
       style="fill:#000000;fill-opacity:1;fill-rule:nonzero;stroke:none;stroke-width:1.33333" />
    <path
       id="path26"
       d="m 132.04102,146.59961 c 0.51562,-1.53125 1.96875,-1.54687 2.10937,-1.54687 2,0 2.15625,2.32812 2.15625,3.375 0,0.8125 -0.0781,1.04687 -0.15625,1.3125 -0.29687,0.96875 -0.70312,2.5 -0.70312,2.84375 0,0.15625 0.0781,0.25 0.17187,0.25 0.17188,0 0.28125,-0.29688 0.4375,-0.79688 0.29688,-1.125 0.4375,-1.875 0.48438,-2.28125 0.0312,-0.1875 0.0469,-0.35937 0.10937,-0.53125 0.42188,-1.3125 1.26563,-3.28125 1.79688,-4.34375 0.0937,-0.15625 0.26562,-0.4375 0.26562,-0.5 0,-0.125 -0.14062,-0.125 -0.17187,-0.125 -0.0312,0 -0.10938,0 -0.15625,0.0937 -0.6875,1.25 -1.21875,2.57812 -1.75,3.92187 -0.0156,-0.40625 -0.0312,-1.42187 -0.54688,-2.70312 -0.3125,-0.8125 -0.84375,-1.46875 -1.76562,-1.46875 -1.65625,0 -2.59375,2.01562 -2.59375,2.4375 0,0.125 0.125,0.125 0.25,0.125 z m 0,0"
       style="fill:#000000;fill-opacity:1;fill-rule:nonzero;stroke:none;stroke-width:1.33333" />
  </g>
</svg>
